<?xml version="1.0" encoding="UTF-8"?>
<svg version="1.1" xmlns="http://www.w3.org/2000/svg" width="1080" height="1080">
<path d="M0 0 C356.4 0 712.8 0 1080 0 C1080 356.4 1080 712.8 1080 1080 C723.6 1080 367.2 1080 0 1080 C0 723.6 0 367.2 0 0 Z " fill="#FEFEFE" transform="translate(0,0)"/>
<path d="M0 0 C2.80896991 2.32703942 5.34156237 4.87077965 7.87890625 7.48828125 C8.57644516 8.19147995 9.27398407 8.89467865 9.99266052 9.6191864 C12.19228055 11.84098285 14.37748374 14.07634968 16.5625 16.3125 C18.06221518 17.83230427 19.56285808 19.35119367 21.06445312 20.86914062 C24.72043833 24.56894435 28.36357199 28.28097644 32 32 C34.91087919 30.68898808 36.92462983 29.30480356 39.12866211 27.00317383 C39.71284409 26.39947464 40.29702606 25.79577545 40.89891052 25.17378235 C41.51879349 24.52475449 42.13867645 23.87572662 42.77734375 23.20703125 C44.10813552 21.84122327 45.43953421 20.47600645 46.77148438 19.11132812 C48.86282351 16.95792122 50.9491721 14.8003092 53.02514648 12.63208008 C55.03334374 10.53942704 57.05978977 8.46595739 59.08984375 6.39453125 C60.01663185 5.41188042 60.01663185 5.41188042 60.96214294 4.40937805 C65.21735219 0.10411653 65.21735219 0.10411653 68.47753906 -0.32958984 C72.40203802 1.73901462 75.20003211 4.71225531 78.26953125 7.87890625 C78.95053391 8.5655687 79.63153656 9.25223114 80.33317566 9.95970154 C82.50252848 12.15141481 84.65754836 14.35663453 86.8125 16.5625 C88.28227915 18.05234439 89.75297201 19.54128797 91.22460938 21.02929688 C94.82708557 24.67583625 98.41677064 28.33455021 102 32 C104.87157857 30.69951142 106.91024149 29.33066432 109.11279297 27.08251953 C109.9842244 26.20117844 109.9842244 26.20117844 110.8732605 25.30203247 C111.49000641 24.66868988 112.10675232 24.03534729 112.7421875 23.3828125 C113.38817902 22.72924774 114.03417053 22.07568298 114.69973755 21.40231323 C117.45734315 18.61209245 120.20303213 15.81025224 122.94970703 13.00927734 C124.95970216 10.9629714 126.97577624 8.92279322 128.9921875 6.8828125 C129.91123367 5.93887131 129.91123367 5.93887131 130.84884644 4.9758606 C137.49930436 -1.74941256 144.78274739 -7.06301651 154.5625 -7.3125 C163.4519299 -6.96240259 172.59532884 -3.23612718 179 3 C185.66546073 11.39415878 188.0468789 19.31518834 187 30 C184.9821142 40.22508518 178.05584888 47.25840367 170.8515625 54.34375 C170.19417084 54.99831177 169.53677917 55.65287354 168.85946655 56.32727051 C166.78601329 58.38964733 164.7056716 60.44490845 162.625 62.5 C161.20656711 63.90838687 159.78859402 65.31723698 158.37109375 66.7265625 C154.91934876 70.15641373 151.46141335 73.57990748 148 77 C151.75643065 81.48104598 155.62282794 85.77283438 159.765625 89.8984375 C160.28509705 90.41886627 160.80456909 90.93929504 161.33978271 91.47549438 C162.42418843 92.56057375 163.50983033 93.64441905 164.59667969 94.72705078 C166.2635537 96.38850967 167.92494651 98.05531815 169.5859375 99.72265625 C170.64551237 100.78157126 171.70539689 101.84017654 172.765625 102.8984375 C173.26145081 103.39628754 173.75727661 103.89413757 174.26812744 104.40707397 C176.88632916 107.03271829 176.88632916 107.03271829 180 109 C180.53102301 112.06582814 180.57905242 114.17094101 178.7578125 116.77850342 C176.90333691 118.79141329 174.97863477 120.6948416 173 122.5859375 C171.93458984 123.63861313 171.93458984 123.63861313 170.84765625 124.71255493 C168.57880731 126.94785337 166.289985 129.16137985 164 131.375 C162.45696972 132.88793343 160.91528568 134.40224119 159.375 135.91796875 C155.59880218 139.6280603 151.80599494 143.3204955 148 147 C151.96303539 151.77014643 156.11803976 156.21365534 160.5703125 160.52734375 C161.80903551 161.74369091 163.04730322 162.96050188 164.28515625 164.17773438 C166.20717996 166.06267329 168.13204183 167.94432648 170.06494141 169.81811523 C171.95107001 171.6494173 173.82395309 173.49346734 175.6953125 175.33984375 C176.55481003 176.16366798 176.55481003 176.16366798 177.43167114 177.00413513 C183.98749217 183.51717507 186.8656203 190.45675844 187.3125 199.625 C187.17863459 208.62075544 183.92023482 215.91358038 177.71875 222.3515625 C171.06296713 228.73506335 165.29990867 231.14860494 156.125 231.4375 C138.10556976 230.93802752 127.73580651 216.88914794 115.875 204.9375 C114.71638288 203.77385247 113.5575301 202.61043954 112.3984375 201.44726562 C109.59624236 198.63419935 106.79722686 195.81800626 104 193 C101.14516961 194.29159802 99.14072636 195.62763914 96.97900391 197.88916016 C96.41807037 198.4696109 95.85713684 199.05006165 95.27920532 199.64810181 C94.68433319 200.27211884 94.08946106 200.89613586 93.4765625 201.5390625 C92.19590527 202.85474392 90.91463638 204.16983018 89.6328125 205.484375 C87.62271971 207.55645303 85.6176316 209.63270986 83.62304688 211.71972656 C81.69185815 213.73558317 79.74226107 215.732056 77.7890625 217.7265625 C77.19823883 218.35462799 76.60741516 218.98269348 75.99868774 219.62979126 C73.37763331 222.28276835 71.67683742 223.81367458 68.03613281 224.81591797 C63.39051322 223.56747308 60.89645067 220.63856863 57.6328125 217.21875 C56.95322479 216.53067261 56.27363708 215.84259521 55.57345581 215.13366699 C53.40947086 212.93613792 51.26729035 210.71866348 49.125 208.5 C47.66024451 207.0051468 46.19411372 205.51163988 44.7265625 204.01953125 C41.13490544 200.36177579 37.5626627 196.68599294 34 193 C31.14683003 194.29103105 29.14290112 195.62545383 26.98242188 197.88574219 C26.42083374 198.46684753 25.85924561 199.04795288 25.28063965 199.64666748 C24.68271606 200.27373596 24.08479248 200.90080444 23.46875 201.546875 C22.1698888 202.88081033 20.87038826 204.21412337 19.5703125 205.546875 C17.54075996 207.63792913 15.51617268 209.73307603 13.50292969 211.83984375 C-4.21793121 230.33877896 -4.21793121 230.33877896 -16.13671875 231.7265625 C-27.09197573 231.41321082 -34.13521673 229.43845376 -42.2109375 221.92578125 C-48.98044009 214.63895859 -51.51635947 206.96873255 -51.30859375 197.09375 C-49.78235604 181.79273399 -35.80238406 171.6718151 -25.5625 161.5 C-24.24520941 160.18773415 -22.92815014 158.87523605 -21.61132812 157.5625 C-18.4102139 154.37231494 -15.20598135 151.18529349 -12 148 C-15.8655352 143.34598463 -19.90083674 139.01742703 -24.2734375 134.83984375 C-25.43953481 133.7058311 -26.60487832 132.57104289 -27.76953125 131.43554688 C-29.5797413 129.67492148 -31.39392754 127.919446 -33.22119141 126.17651367 C-35.00253019 124.47385425 -36.76412141 122.75271122 -38.5234375 121.02734375 C-39.07333344 120.51155258 -39.62322937 119.99576141 -40.18978882 119.46434021 C-42.72417797 116.94856493 -43.93592496 115.37529666 -44.54345703 111.81689453 C-43.91548151 108.5619163 -43.39516711 107.84438784 -40.78125 105.90234375 C-36.93327906 102.82040406 -33.43720375 99.55986644 -29.96875 96.06640625 C-29.44321533 95.53961273 -28.91768066 95.01281921 -28.3762207 94.47006226 C-26.74858302 92.83641068 -25.124237 91.19953197 -23.5 89.5625 C-22.38044368 88.4379167 -21.26065371 87.31356595 -20.140625 86.18945312 C-17.42438466 83.46230656 -14.71131708 80.73204093 -12 78 C-15.88917396 73.32524153 -19.94742601 68.953298 -24.31640625 64.7265625 C-25.50500166 63.56034856 -26.69313888 62.39366748 -27.88085938 61.2265625 C-29.72156104 59.42288574 -31.56508171 57.62250089 -33.41674805 55.83007812 C-50.99402936 38.7871387 -50.99402936 38.7871387 -51.3125 24.875 C-51.19121732 15.83944069 -49.03557839 9.79136116 -42.8125 3.1875 C-29.56705386 -9.14145728 -15.07026105 -9.73692726 0 0 Z " fill="#124664" transform="translate(472,340)"/>
<path d="M0 0 C9.57944197 7.82927239 18.10274918 16.98979374 26.8125 25.75 C28.31421745 27.25674534 29.81616895 28.76325745 31.31835938 30.26953125 C34.06760845 33.0268848 36.81552936 35.78554623 39.56176758 38.54589844 C41.63734101 40.63207499 43.71549866 42.71549866 45.79638672 44.79638672 C47.40788826 46.40788826 49.01258271 48.0262049 50.61328125 49.6484375 C51.50402344 50.54820312 52.39476562 51.44796875 53.3125 52.375 C54.63701172 53.71691406 54.63701172 53.71691406 55.98828125 55.0859375 C58.0782236 57.15334871 60.2442124 59.0820678 62.4823761 60.98733521 C67.98735161 65.78950722 73.12453098 70.96044247 78.29370117 76.11669922 C79.40972794 77.22644762 80.525939 78.33601072 81.64231873 79.44540405 C85.27940163 83.06162512 88.91131187 86.68301867 92.54296875 90.3046875 C93.79963866 91.55730457 95.05634064 92.80988948 96.31307411 94.06244278 C102.21401356 99.94437793 108.1125711 105.82868887 114.0081951 111.7159518 C120.79377509 118.49174636 127.58756793 125.25916543 134.3883974 132.0196532 C139.6610396 137.26209627 144.92594496 142.51222959 150.18516332 147.768139 C153.31975314 150.90038484 156.45752241 154.0292765 159.60353661 157.15005112 C162.56155285 160.08471186 165.50981101 163.02884169 168.45104408 165.98031998 C169.52747544 167.05724481 170.60729297 168.13079811 171.69084167 169.20056152 C179.63987495 177.05413998 186.92538006 184.75185407 187.4375 196.4375 C187.3509903 204.36755591 184.62544187 211.21790324 179.1015625 216.98046875 C172.33384159 222.39732046 165.66755219 224.29719306 157.1015625 224.49609375 C146.63784176 222.82242557 140.37643636 217.22912856 133.15356445 209.85058594 C132.11055403 208.80752002 131.06622427 207.76577198 130.02069092 206.72523499 C127.20351137 203.91401401 124.405195 201.08468875 121.6101687 198.25146389 C118.67052381 195.27782421 115.71407571 192.3209803 112.75956726 189.36212158 C107.80137923 184.39200033 102.8542294 179.41111997 97.91479492 174.42236328 C90.96788981 167.40613224 84.00109928 160.40991177 77.03028166 153.41744947 C71.5956859 147.96450219 66.16658115 142.50608867 60.73828125 137.046875 C60.16031052 136.46573283 59.58233979 135.88459066 58.98685479 135.28583813 C55.65259131 131.9326384 52.32115232 128.57667524 48.99377441 125.21664238 C47.98966164 124.20329117 46.98477641 123.19070464 45.97902489 122.17897987 C41.02561172 117.19476603 36.20203409 112.16756845 31.62101078 106.83903694 C28.89686975 103.74849859 25.96621648 100.8763452 23.02661133 97.99243164 C22.36877151 97.34247726 21.7109317 96.69252289 21.03315735 96.02287292 C19.61940705 94.62618385 18.20460185 93.23056188 16.7888279 91.83592415 C13.77087003 88.8604004 10.762529 85.87523082 7.75352764 82.89065456 C2.16702167 77.3496993 -3.42326618 71.8127002 -9.0300293 66.29223633 C-12.94582277 62.43597995 -16.84916681 58.56749688 -20.74468422 54.69076347 C-22.2244632 53.22268442 -23.7087544 51.75913836 -25.19771385 50.30037117 C-27.28187909 48.25743402 -29.34976708 46.19921822 -31.41479492 44.13696289 C-32.02526672 43.54603851 -32.63573853 42.95511414 -33.26470947 42.34628296 C-38.21562663 37.34801383 -41.40481774 31.82416318 -42.49609375 24.8125 C-42.30318102 15.55268877 -41.04679892 8.32289983 -34.5234375 1.43359375 C-25.26495414 -7.27887649 -10.18693702 -6.76805737 0 0 Z " fill="#BC8F5A" transform="translate(468,343)"/>
<path d="M0 0 C3.35196312 1.45545381 5.53200551 3.29335773 8.09423828 5.88305664 C8.88831085 6.68050797 9.68238342 7.47795929 10.5005188 8.29957581 C11.34855072 9.16106735 12.19658264 10.0225589 13.0703125 10.91015625 C13.94775116 11.79279648 14.82518982 12.67543671 15.72921753 13.58482361 C18.05652696 15.92692839 20.37971267 18.27301684 22.70056152 20.621521 C25.97669315 23.93569494 29.25806718 27.24464947 32.54220581 30.55088806 C34.29001251 32.31098854 36.03513975 34.07375445 37.77737427 35.83937073 C38.56514252 36.63366989 39.35291077 37.42796906 40.16455078 38.24633789 C40.85864044 38.94868057 41.5527301 39.65102325 42.26785278 40.37464905 C43.91767754 42.07796676 43.91767754 42.07796676 46 43 C46 43.66 46 44.32 46 45 C46.556875 45.226875 47.11375 45.45375 47.6875 45.6875 C50.65362457 47.37097611 52.61481945 49.55962247 55 52 C55.87493607 52.87493607 56.74987213 53.74987213 57.65132141 54.65132141 C74.76754761 71.76754761 91.8837738 88.8837738 109 106 C107.71977125 108.80969467 106.39285871 110.8539238 104.20263672 113.02441406 C103.64220673 113.58469299 103.08177673 114.14497192 102.50436401 114.722229 C101.90222076 115.31404968 101.30007751 115.90587036 100.6796875 116.515625 C100.06102814 117.13145447 99.44236877 117.74728394 98.80496216 118.3817749 C96.83296186 120.34260336 94.85411263 122.29635301 92.875 124.25 C91.53469836 125.58026799 90.19484917 126.910992 88.85546875 128.2421875 C85.57553411 131.5001015 82.28944058 134.75168533 79 138 C75.66786117 136.54893753 73.48483775 134.73019598 70.92828369 132.1620636 C69.72573944 130.9614756 69.72573944 130.9614756 68.49890137 129.7366333 C67.62817993 128.85715027 66.7574585 127.97766724 65.86035156 127.0715332 C64.93627502 126.14614243 64.01219849 125.22075165 63.06011963 124.26731873 C61.0514083 122.25567595 59.04589273 120.24091887 57.04279327 118.22368813 C53.86967997 115.02826647 50.68945545 111.83998611 47.50823975 108.65263367 C42.47086613 103.60387813 37.43818359 98.55047612 32.40752959 93.49502581 C23.41618066 84.45941872 14.41937431 75.42925457 5.41719031 66.40444249 C2.26227152 63.24116204 -0.88981543 60.07509518 -4.03958845 56.90669119 C-5.53255687 55.40559342 -7.02668243 53.90565858 -8.52130127 52.40620422 C-10.33509875 50.58643294 -12.1470812 48.7648498 -13.95678711 46.94100952 C-18.30443297 42.58525821 -22.69039076 38.44037434 -27.49185562 34.58523846 C-29.22983597 32.75841516 -29.61257299 31.46123891 -30 29 C-29.55591797 28.62738037 -29.11183594 28.25476074 -28.65429688 27.87084961 C-22.28230392 22.41913061 -16.39881023 16.51229473 -10.5 10.5625 C-9.47679861 9.5342702 -8.45336267 8.50627374 -7.4296875 7.47851562 C-4.95042001 4.98835662 -2.47432462 2.49507167 0 0 Z " fill="#AF8351" transform="translate(462,422)"/>
<path d="M0 0 C3.47092342 1.63134762 5.64854097 3.46774794 8.3125 6.25 C11.51354387 9.52988731 14.75084624 12.61432874 18.296875 15.515625 C20.09201434 17.08019598 21.75776068 18.74759997 23.4372139 20.43441582 C25.21713068 22.21751944 27.00641456 23.99089661 28.79696655 25.76332092 C29.51207397 26.47120255 30.2271814 27.17908417 30.96395874 27.90841675 C31.73301544 28.66961823 32.50207214 29.4308197 33.29443359 30.21508789 C41.64686632 38.48587591 49.98670307 46.76925409 58.31918907 55.06012821 C63.35989183 60.07497702 68.40524576 65.084981 73.46142578 70.08422852 C78.35438773 74.92212596 83.23427634 79.77289472 88.10628128 84.63189507 C89.96715633 86.48350955 91.83243677 88.33070716 93.70209885 90.17344856 C96.30703932 92.74232048 98.89613891 95.32618435 101.48193359 97.91430664 C102.26313568 98.67753235 103.04433777 99.44075806 103.84921265 100.22711182 C104.54740112 100.93217361 105.2455896 101.63723541 105.9649353 102.36366272 C106.57880789 102.97292634 107.19268047 103.58218996 107.82515526 104.20991611 C109 106 109 106 108.78100014 108.13118649 C107.79342336 110.49430622 106.62335177 111.47001886 104.625 113.06640625 C99.08832376 117.69472155 94.07548346 122.81590742 89 127.9375 C88.02497614 128.9175531 87.0497172 129.8973724 86.07421875 130.87695312 C83.71383382 133.24902313 81.35583095 135.6234086 79 138 C75.85533896 136.6056926 73.72684865 134.97621327 71.30119324 132.5484314 C70.22269356 131.47622345 70.22269356 131.47622345 69.12240601 130.38235474 C67.95422836 129.20574783 67.95422836 129.20574783 66.76245117 128.00537109 C65.93430405 127.17912231 65.10615692 126.35287354 64.25291443 125.50158691 C61.51135301 122.76373536 58.77706949 120.018738 56.04296875 117.2734375 C54.1381822 115.3664511 52.23204429 113.46081742 50.32600403 111.55508423 C46.32711751 107.55526122 42.33212022 103.55158693 38.33959961 99.54541016 C33.73960182 94.92973541 29.13444776 90.31925859 24.52623767 85.71178377 C19.60494406 80.79116908 14.68748075 75.86673995 9.77110887 70.94120836 C8.36282579 69.53080562 6.95376423 68.12118034 5.54469872 66.7115593 C2.90252419 64.0672033 0.2636767 61.41957127 -2.37426758 58.77099609 C-3.14697998 57.99873688 -3.91969238 57.22647766 -4.71582031 56.43081665 C-8.79299724 52.32973585 -12.70992967 48.14722727 -16.47025585 43.75292397 C-18.83529352 41.04284254 -21.37232391 38.51905259 -23.9375 36 C-24.67709961 35.26716797 -24.67709961 35.26716797 -25.43164062 34.51953125 C-26.61873229 33.34396475 -27.80900498 32.17161174 -29 31 C-27.34763349 26.70932454 -24.1094793 23.8570447 -20.8984375 20.703125 C-20.30197418 20.10949158 -19.70551086 19.51585815 -19.0909729 18.90423584 C-17.1903019 17.01473373 -15.28278526 15.13231608 -13.375 13.25 C-12.08287532 11.96790935 -10.79120324 10.68536239 -9.5 9.40234375 C-6.33855521 6.26291568 -3.1709539 3.12982199 0 0 Z " fill="#D2A368" transform="translate(539,345)"/>
<path d="M0 0 C2.93196287 3.09044735 3.15138798 5.2485875 3.3125 9.4375 C3.9725 8.53 4.6325 7.6225 5.3125 6.6875 C9.45709034 1.67846653 15.82636513 -1.19578275 22.24609375 -1.87109375 C31.16568779 -2.19923935 38.10313518 -1.09806692 45.3125 4.4375 C49.27639286 9.12141164 52.05906012 14.22822297 52.3125 20.4375 C52.36857422 21.68853516 52.36857422 21.68853516 52.42578125 22.96484375 C52.66688453 32.215596 51.50054131 40.19749167 45.3125 47.4375 C37.21152321 53.829677 29.29169999 54.01041858 19.3125 53.4375 C13.86563939 52.3797763 8.80059976 49.81973237 5.3125 45.4375 C-0.16249821 36.45214674 -0.51300018 27.61473799 0.3125 17.4375 C0.8075 15.9525 0.8075 15.9525 1.3125 14.4375 C-4.2975 14.4375 -9.9075 14.4375 -15.6875 14.4375 C-15.66429687 17.01304687 -15.64109375 19.58859375 -15.6171875 22.2421875 C-15.60159928 24.73095202 -15.58944982 27.21971114 -15.57763672 29.70849609 C-15.56756624 31.44094265 -15.55390911 33.17337216 -15.53662109 34.90576172 C-15.51241838 37.39294639 -15.50102761 39.87990675 -15.4921875 42.3671875 C-15.48186493 43.14432098 -15.47154236 43.92145447 -15.46090698 44.72213745 C-15.46050729 46.62875493 -15.5651786 48.53481036 -15.6875 50.4375 C-17.6875 52.4375 -17.6875 52.4375 -20.65625 52.66796875 C-21.8215625 52.65378906 -22.986875 52.63960937 -24.1875 52.625 C-25.3528125 52.61855469 -26.518125 52.61210938 -27.71875 52.60546875 C-30.6875 52.4375 -30.6875 52.4375 -32.6875 51.4375 C-32.6875 36.2575 -32.6875 21.0775 -32.6875 5.4375 C-23.54222148 0.21162656 -10.40615493 -5.78951545 0 0 Z " fill="#D3A66D" transform="translate(596.6875,654.5625)"/>
<path d="M0 0 C6.47055642 4.12757998 10.7654227 9.64024542 13 17 C14.31384681 25.76615824 13.05988864 32.72191374 8 40 C5.2268392 43.5611294 2.16034504 46.78595495 -1 50 C-1.64098633 50.66 -2.28197266 51.32 -2.94238281 52 C-5.09889411 54.21688174 -7.26577639 56.4230228 -9.4375 58.625 C-10.14817627 59.34896973 -10.85885254 60.07293945 -11.59106445 60.81884766 C-12.26097412 61.48964355 -12.93088379 62.16043945 -13.62109375 62.8515625 C-14.2236499 63.45822754 -14.82620605 64.06489258 -15.44702148 64.68994141 C-17 66 -17 66 -19 66 C-19.28875 66.61875 -19.5775 67.2375 -19.875 67.875 C-21 70 -21 70 -23 72 C-26.56934307 71.69527398 -28.30251472 70.06400802 -30.75878906 67.58178711 C-31.47923401 66.86111557 -32.19967896 66.14044403 -32.94195557 65.39793396 C-33.70876648 64.61563919 -34.47557739 63.83334442 -35.265625 63.02734375 C-36.05902283 62.22970108 -36.85242065 61.43205841 -37.66986084 60.61024475 C-40.20369398 58.05961153 -42.72690105 55.49874774 -45.25 52.9375 C-46.9654564 51.20699858 -48.68159405 49.4771722 -50.3984375 47.74804688 C-54.60689643 43.50650094 -58.80667651 39.25650702 -63 35 C-59.07549374 30.30946184 -55.00302538 25.84389359 -50.68359375 21.515625 C-50.10464859 20.93335144 -49.52570343 20.35107788 -48.92921448 19.75115967 C-47.71623962 18.53316419 -46.50194568 17.31648102 -45.28637695 16.10107422 C-43.43345769 14.24595288 -41.58870772 12.38295294 -39.74414062 10.51953125 C-38.55778156 9.33024028 -37.37094892 8.14142149 -36.18359375 6.953125 C-35.63763046 6.3999762 -35.09166718 5.84682739 -34.52915955 5.2769165 C-24.31169934 -4.88018589 -12.8748292 -6.24290279 0 0 Z " fill="#D8A96D" transform="translate(642,341)"/>
<path d="M0 0 C1.19921875 1.22265625 1.19921875 1.22265625 2.6875 3.0625 C6.49703943 7.55144774 10.5911885 11.71320762 14.75 15.875 C15.41217529 16.54152588 16.07435059 17.20805176 16.7565918 17.89477539 C17.38863525 18.52504639 18.02067871 19.15531738 18.671875 19.8046875 C19.2400293 20.37171387 19.80818359 20.93874023 20.39355469 21.52294922 C22.1397323 23.2049774 22.1397323 23.2049774 25 25 C25 25.66 25 26.32 25 27 C25.57234375 27.24492188 26.1446875 27.48984375 26.734375 27.7421875 C29.38024402 29.21110099 31.14853139 30.95348244 33.25 33.125 C33.95640625 33.84945312 34.6628125 34.57390625 35.390625 35.3203125 C36.18726563 36.15175781 36.18726563 36.15175781 37 37 C35.70524373 39.84199073 34.33456985 41.9228774 32.14599609 44.14453125 C31.57134613 44.73194092 30.99669617 45.31935059 30.40463257 45.92456055 C29.7838382 46.54758057 29.16304382 47.17060059 28.5234375 47.8125 C27.87935944 48.46323486 27.23528137 49.11396973 26.57168579 49.78442383 C25.20750298 51.15872147 23.84060173 52.53032527 22.47119141 53.89941406 C20.39283715 55.98212545 18.33098721 58.08026644 16.26953125 60.1796875 C14.93848456 61.51660596 13.60648297 62.85257453 12.2734375 64.1875 C11.66478851 64.81052002 11.05613953 65.43354004 10.42904663 66.07543945 C4.34049006 72.10087809 -2.46113696 76.10230415 -11.1875 76.25 C-19.3880831 76.15275988 -25.88487616 73.49113161 -32 68 C-37.20201051 61.49748686 -39.85948609 54.39629541 -39.41992188 46.03930664 C-37.69450354 33.55108989 -27.98528276 25.17219959 -19.41259766 16.85009766 C-17.22637326 14.72705608 -15.06303865 12.58258549 -12.90234375 10.43359375 C-11.52469037 9.07424992 -10.14582838 7.71612963 -8.765625 6.359375 C-8.11668274 5.7189325 -7.46774048 5.07848999 -6.7991333 4.41864014 C-2.23458673 0 -2.23458673 0 0 0 Z " fill="#93693F" transform="translate(464,491)"/>
<path d="M0 0 C2.69684925 1.05978421 4.17110083 1.05791066 7.0078125 0.6484375 C7.75160156 0.54917969 8.49539063 0.44992187 9.26171875 0.34765625 C11.42038847 -0.00308169 11.42038847 -0.00308169 13.40234375 -0.55859375 C20.8837481 -2.31808273 27.32888998 -1.20215562 34.15625 2.0859375 C37.97132493 5.21091355 40.89539578 9.2730254 41.89703369 14.16888428 C42.05196826 16.52851408 42.06122764 18.83919034 42.00390625 21.203125 C42.00040916 22.47749924 42.00040916 22.47749924 41.99684143 23.77761841 C41.98716362 25.55757819 41.96551566 27.33750999 41.93237305 29.1171875 C41.88256676 31.84941818 41.87086415 34.57985429 41.86523438 37.3125 C41.85116199 39.04689428 41.8349625 40.7812729 41.81640625 42.515625 C41.8083622 43.74211258 41.8083622 43.74211258 41.80015564 44.99337769 C41.67870635 50.72754365 41.67870635 50.72754365 39.4453125 52.9609375 C36.4765625 53.19140625 36.4765625 53.19140625 32.9453125 53.1484375 C31.78 53.14199219 30.6146875 53.13554688 29.4140625 53.12890625 C26.4453125 52.9609375 26.4453125 52.9609375 24.4453125 51.9609375 C24.4155835 50.43170654 24.4155835 50.43170654 24.38525391 48.87158203 C24.30928442 45.09561102 24.22055441 41.32002977 24.12792969 37.54443359 C24.08960398 35.9090951 24.05475743 34.27367126 24.0234375 32.63818359 C23.97786408 30.2897284 23.91985883 27.94186255 23.859375 25.59375 C23.84782379 24.86036407 23.83627258 24.12697815 23.82437134 23.37136841 C23.82663153 19.21116645 23.82663153 19.21116645 21.4453125 15.9609375 C19.24280258 15.50087404 19.24280258 15.50087404 16.8203125 15.3359375 C16.00304687 15.26117187 15.18578125 15.18640625 14.34375 15.109375 C13.71726562 15.06039062 13.09078125 15.01140625 12.4453125 14.9609375 C12.46102295 16.58104736 12.46102295 16.58104736 12.47705078 18.23388672 C12.51319444 22.23320209 12.53619234 26.23250296 12.55517578 30.23193359 C12.56524626 31.96438015 12.57890339 33.69680966 12.59619141 35.42919922 C12.62039412 37.91638389 12.63178489 40.40334425 12.640625 42.890625 C12.65094757 43.66775848 12.66127014 44.44489197 12.67190552 45.24557495 C12.67230521 47.15219243 12.5676339 49.05824786 12.4453125 50.9609375 C10.4453125 52.9609375 10.4453125 52.9609375 7.4765625 53.19140625 C6.31125 53.17722656 5.1459375 53.16304687 3.9453125 53.1484375 C2.78 53.14199219 1.6146875 53.13554688 0.4140625 53.12890625 C-2.5546875 52.9609375 -2.5546875 52.9609375 -4.5546875 51.9609375 C-4.57450684 50.9414502 -4.59432617 49.92196289 -4.61474609 48.87158203 C-4.69071558 45.09561102 -4.77944559 41.32002977 -4.87207031 37.54443359 C-4.91039602 35.9090951 -4.94524257 34.27367126 -4.9765625 32.63818359 C-5.02213592 30.2897284 -5.08014117 27.94186255 -5.140625 25.59375 C-5.15217621 24.86036407 -5.16372742 24.12697815 -5.17562866 23.37136841 C-5.17336847 19.21116645 -5.17336847 19.21116645 -7.5546875 15.9609375 C-9.98721411 15.49931323 -9.98721411 15.49931323 -12.6796875 15.3359375 C-13.58976563 15.26117187 -14.49984375 15.18640625 -15.4375 15.109375 C-16.48550781 15.03589844 -16.48550781 15.03589844 -17.5546875 14.9609375 C-17.54421387 16.04101074 -17.53374023 17.12108398 -17.52294922 18.23388672 C-17.48680556 22.23320209 -17.46380766 26.23250296 -17.44482422 30.23193359 C-17.43475374 31.96438015 -17.42109661 33.69680966 -17.40380859 35.42919922 C-17.37960588 37.91638389 -17.36821511 40.40334425 -17.359375 42.890625 C-17.34905243 43.66775848 -17.33872986 44.44489197 -17.32809448 45.24557495 C-17.32769479 47.15219243 -17.4323661 49.05824786 -17.5546875 50.9609375 C-19.5546875 52.9609375 -19.5546875 52.9609375 -22.5234375 53.19140625 C-23.68875 53.17722656 -24.8540625 53.16304687 -26.0546875 53.1484375 C-27.22 53.14199219 -28.3853125 53.13554688 -29.5859375 53.12890625 C-32.5546875 52.9609375 -32.5546875 52.9609375 -34.5546875 51.9609375 C-34.5546875 36.4509375 -34.5546875 20.9409375 -34.5546875 4.9609375 C-24.99081856 0.17900303 -10.53622128 -4.2853744 0 0 Z " fill="#D5A76D" transform="translate(742.5546875,654.0390625)"/>
<path d="M0 0 C2.64590014 -0.02684679 5.29153096 -0.04676357 7.9375 -0.0625 C8.69224609 -0.07087891 9.44699219 -0.07925781 10.22460938 -0.08789062 C12.14994313 -0.09652441 14.07535581 -0.05224333 16 0 C17 1 17 1 17.11352539 3.31665039 C17.10828857 4.31688232 17.10305176 5.31711426 17.09765625 6.34765625 C17.09443359 7.42724609 17.09121094 8.50683594 17.08789062 9.61914062 C17.07951172 10.75544922 17.07113281 11.89175781 17.0625 13.0625 C17.05798828 14.20267578 17.05347656 15.34285156 17.04882812 16.51757812 C17.0369976 19.34507418 17.0190615 22.17254345 17 25 C23.6 25 30.2 25 37 25 C36.98839844 23.36289062 36.97679687 21.72578125 36.96484375 20.0390625 C36.95546647 17.9010428 36.9463662 15.76302188 36.9375 13.625 C36.92912109 12.54476562 36.92074219 11.46453125 36.91210938 10.3515625 C36.90888672 9.3203125 36.90566406 8.2890625 36.90234375 7.2265625 C36.89710693 6.27346191 36.89187012 5.32036133 36.88647461 4.33837891 C37 2 37 2 38 0 C40.64590014 -0.02684679 43.29153096 -0.04676357 45.9375 -0.0625 C46.69224609 -0.07087891 47.44699219 -0.07925781 48.22460938 -0.08789062 C50.14994313 -0.09652441 52.07535581 -0.05224333 54 0 C55 1 55 1 55.12025452 3.58790588 C55.11803391 4.74040329 55.11581329 5.8929007 55.11352539 7.08032227 C55.11344986 8.38159561 55.11337433 9.68286896 55.11329651 11.02357483 C55.10818909 12.45451902 55.10297308 13.88546282 55.09765625 15.31640625 C55.09579203 16.7722926 55.09436815 18.22817957 55.09336853 19.68406677 C55.08954365 23.52279379 55.07971364 27.36148319 55.06866455 31.20019531 C55.05844978 35.11457816 55.05387077 39.02896706 55.04882812 42.94335938 C55.03809134 50.62892343 55.02101529 58.31445645 55 66 C52.02958551 67.48520725 49.30235553 67.1705822 46 67.1875 C44.1128125 67.20876953 44.1128125 67.20876953 42.1875 67.23046875 C39 67 39 67 37 65 C36.77294922 62.56982422 36.77294922 62.56982422 36.8046875 59.5546875 C36.81113281 58.47832031 36.81757813 57.40195312 36.82421875 56.29296875 C36.84097656 55.16503906 36.85773438 54.03710938 36.875 52.875 C36.88402344 51.73933594 36.89304687 50.60367188 36.90234375 49.43359375 C36.92596801 46.62230663 36.9618399 43.81112738 37 41 C30.4 41 23.8 41 17 41 C17 49.25 17 57.5 17 66 C14.02958551 67.48520725 11.30235553 67.1705822 8 67.1875 C6.1128125 67.20876953 6.1128125 67.20876953 4.1875 67.23046875 C1 67 1 67 -1 65 C-1.24723816 62.38122559 -1.24723816 62.38122559 -1.24291992 59.02148438 C-1.24599655 57.76678345 -1.24907318 56.51208252 -1.25224304 55.21936035 C-1.24534507 53.84415505 -1.23807809 52.46895155 -1.23046875 51.09375 C-1.22927692 49.68892458 -1.22882379 48.28409836 -1.2290802 46.87927246 C-1.22751496 43.93362446 -1.21922244 40.98809792 -1.20581055 38.04248047 C-1.18882062 34.26267983 -1.1849962 30.48301276 -1.18575573 26.70317841 C-1.18548407 23.80188721 -1.18000347 20.90062533 -1.17275429 17.99934387 C-1.16956738 16.60545575 -1.16760016 15.2115643 -1.16686058 13.81767273 C-1.16469729 11.87127492 -1.15516051 9.92488948 -1.14526367 7.97851562 C-1.14145187 6.86980103 -1.13764008 5.76108643 -1.13371277 4.61877441 C-1 2 -1 2 0 0 Z " fill="#8D663F" transform="translate(297,640)"/>
<path d="M0 0 C6.40451109 3.59131463 9.84839383 8.62940109 12.1328125 15.5390625 C13.82606988 25.1582055 12.91846591 34.85107136 8 43.3125 C4.38668148 48.32088874 0.46512338 51.00667688 -5.5 52.625 C-15.48074114 53.71055052 -23.17263446 52.96766073 -31.6875 47.625 C-37.54102732 42.17239921 -39.71350528 35.02838964 -40.04248047 27.23632812 C-40.10698772 20.0303961 -39.51922211 13.77943386 -35.5 7.625 C-34.9225 6.696875 -34.345 5.76875 -33.75 4.8125 C-24.88125787 -3.80988818 -10.99961845 -4.88718967 0 0 Z " fill="#D4A76D" transform="translate(690.5,655.375)"/>
<path d="M0 0 C3.670719 2.78902669 5.47355895 5.69972603 7.21875 9.8984375 C7.74263703 14.34783697 7.69219093 18.79074243 7.66479492 23.26611328 C7.65627086 25.3932332 7.68510775 27.517675 7.71679688 29.64453125 C7.718409 31.01041587 7.71783113 32.3763052 7.71484375 33.7421875 C7.71762329 35.58586914 7.71762329 35.58586914 7.72045898 37.46679688 C7.03676723 42.14318197 5.08609077 45.44346782 1.34375 48.359375 C-4.66669506 50.94475026 -10.44694648 51.30977576 -16.90625 51.3984375 C-17.75316406 51.41696777 -18.60007812 51.43549805 -19.47265625 51.45458984 C-25.36197238 51.39601825 -29.86388844 50.21192844 -34.78125 46.8984375 C-39.64125761 41.78264002 -41.3144369 37.4734852 -41.16015625 30.5 C-40.31610466 24.70475915 -37.19253275 21.02170336 -32.71875 17.4609375 C-27.21232246 14.53198668 -21.9277209 14.47146133 -15.78125 14.8984375 C-12.65625 15.8984375 -12.65625 15.8984375 -10.78125 16.8984375 C-11.11125 15.9084375 -11.44125 14.9184375 -11.78125 13.8984375 C-15.84820519 11.8649599 -21.55543135 12.16502599 -25.8203125 13.5703125 C-27.47543909 14.343191 -29.12842949 15.12063961 -30.78125 15.8984375 C-32.43125 15.8984375 -34.08125 15.8984375 -35.78125 15.8984375 C-35.78125 10.9484375 -35.78125 5.9984375 -35.78125 0.8984375 C-24.07743902 -4.43712339 -11.74374357 -7.26257826 0 0 Z " fill="#A1784C" transform="translate(549.78125,657.1015625)"/>
<path d="M0 0 C3.93405169 2.8611285 6.49959913 5.81129739 8.0625 10.5 C8.31317583 14.87766432 8.33328623 19.25747461 8.35766602 23.64135742 C8.36917992 25.08351457 8.38962291 26.52562929 8.41918945 27.9675293 C8.46203925 30.05807261 8.47805746 32.14735234 8.48828125 34.23828125 C8.50286377 35.48649658 8.51744629 36.73471191 8.5324707 38.02075195 C7.97191169 42.17063586 6.7069469 44.28612517 4.0625 47.5 C-5.41494372 52.4971976 -17.1824334 52.81668757 -27.65234375 51.0390625 C-33.28177835 49.20220284 -36.14359285 45.57436385 -39.04296875 40.60546875 C-40.98776549 36.02797772 -40.85565732 30.80918536 -39.02734375 26.2109375 C-36.09602919 21.17774786 -32.54783863 17.94413545 -27.0625 15.75 C-20.79651134 15.01282486 -15.86447424 15.52434192 -9.9375 17.5 C-10.2675 16.51 -10.5975 15.52 -10.9375 14.5 C-14.62279852 12.65735074 -18.9068807 13.13082916 -22.9375 13.5 C-24.96264567 14.15826368 -24.96264567 14.15826368 -26.75 15.0625 C-29.9375 16.5 -29.9375 16.5 -34.9375 15.5 C-34.9375 10.88 -34.9375 6.26 -34.9375 1.5 C-23.43571426 -3.74346115 -11.73190735 -6.79215688 0 0 Z " fill="#8D663F" transform="translate(397.9375,656.5)"/>
<path d="M0 0 C0.70253906 0.00386719 1.40507812 0.00773438 2.12890625 0.01171875 C2.83144531 0.00785156 3.53398437 0.00398437 4.2578125 0 C9.50229247 0.01010497 9.50229247 0.01010497 10.62890625 1.13671875 C10.7764444 3.55950058 10.86380971 5.95750967 10.91015625 8.3828125 C10.93777039 9.47227928 10.93777039 9.47227928 10.96594238 10.58375549 C11.0248638 12.91382529 11.07759713 15.24396962 11.12890625 17.57421875 C11.19646635 20.63557542 11.27016974 23.69669285 11.34765625 26.7578125 C11.36123169 27.46618759 11.37480713 28.17456268 11.38879395 28.90440369 C11.43326319 32.64582651 11.43326319 32.64582651 12.62890625 36.13671875 C14.10797517 36.16361091 15.58718108 36.18306496 17.06640625 36.19921875 C18.30197266 36.21662109 18.30197266 36.21662109 19.5625 36.234375 C21.62054563 36.36939223 21.62054563 36.36939223 22.62890625 35.13671875 C22.7764444 32.71393692 22.86380971 30.31592783 22.91015625 27.890625 C22.92856567 27.16431381 22.9469751 26.43800262 22.96594238 25.68968201 C23.0248638 23.35961221 23.07759713 21.02946788 23.12890625 18.69921875 C23.19646635 15.63786208 23.27016974 12.57674465 23.34765625 9.515625 C23.36123169 8.80724991 23.37480713 8.09887482 23.38879395 7.36903381 C23.51613311 2.36226503 23.51613311 2.36226503 24.62890625 0.13671875 C27.10814426 0.1098678 29.58709465 0.08995328 32.06640625 0.07421875 C32.77345703 0.06583984 33.48050781 0.05746094 34.20898438 0.04882812 C36.01584184 0.04018287 37.82278228 0.08451864 39.62890625 0.13671875 C41.65238778 2.16020028 40.84084855 6.26900489 40.8671875 9.046875 C40.87525925 9.84774033 40.88333099 10.64860565 40.89164734 11.47373962 C40.90551083 13.17607446 40.9162228 14.87843736 40.92407227 16.58081055 C40.9411761 19.16445309 40.98502588 21.74677928 41.02929688 24.33007812 C41.03943332 25.98566769 41.04794644 27.64126813 41.0546875 29.296875 C41.07219559 30.0617775 41.08970367 30.82667999 41.10774231 31.61476135 C41.08328416 37.77564616 39.46461156 43.06158697 35.2167511 47.66810608 C27.9215722 54.09412496 19.76325416 53.82686762 10.57373047 53.33203125 C5.01662968 52.77394932 1.40993703 50.24174421 -2.24609375 46.19921875 C-6.08055936 40.67307713 -6.66269852 36.22955 -6.6015625 29.58984375 C-6.60110428 28.7780365 -6.60064606 27.96622925 -6.60017395 27.12982178 C-6.59716321 25.42198211 -6.58931233 23.7141449 -6.5769043 22.00634766 C-6.55855894 19.38173805 -6.55639537 16.75747976 -6.55664062 14.1328125 C-6.55172838 12.47265318 -6.54590134 10.81249625 -6.5390625 9.15234375 C-6.53739326 7.96961884 -6.53739326 7.96961884 -6.53569031 6.76300049 C-6.47974378 0.4092064 -6.40768329 0.01234621 0 0 Z " fill="#8E663F" transform="translate(419.37109375,654.86328125)"/>
<path d="M0 0 C1.155 0.66 2.31 1.32 3.5 2 C3.5 6.62 3.5 11.24 3.5 16 C-2.7406015 16 -2.7406015 16 -6.5 14 C-9.08532701 13.54935368 -9.08532701 13.54935368 -11.75 13.375 C-12.64203125 13.30023437 -13.5340625 13.22546875 -14.453125 13.1484375 C-15.46632813 13.07496094 -15.46632813 13.07496094 -16.5 13 C-14.20406463 16.44390305 -13.69532311 16.46427282 -9.875 17.375 C-4.4389173 18.87977072 1.44288593 20.90760629 4.6953125 25.796875 C6.5536393 30.8847212 6.2694189 36.95529951 4.953125 42.1640625 C2.80627528 46.76156144 -0.92304163 49.0905978 -5.453125 51.12109375 C-14.07299089 53.60759353 -24.43844009 53.19431995 -32.5 49 C-34.5 47 -34.5 47 -34.6953125 43.9609375 C-34.67210937 42.77757812 -34.64890625 41.59421875 -34.625 40.375 C-34.60695313 39.18648437 -34.58890625 37.99796875 -34.5703125 36.7734375 C-34.54710937 35.85820313 -34.52390625 34.94296875 -34.5 34 C-29.828125 32.828125 -29.828125 32.828125 -26.875 34.375 C-22.18705662 36.63215793 -17.64306007 36.73461078 -12.5 37 C-12.5 36.01 -12.5 35.02 -12.5 34 C-13.1290625 33.91363281 -13.758125 33.82726562 -14.40625 33.73828125 C-21.66077906 32.54740223 -27.40415287 30.39544524 -32.4375 24.875 C-35.2746753 19.86822005 -35.36941991 14.29557141 -33.921875 8.80859375 C-31.91130583 3.99236669 -29.07109825 1.13364898 -24.390625 -1.15234375 C-16.60576024 -3.43520274 -7.44471837 -3.28651333 0 0 Z " fill="#8F6740" transform="translate(500.5,656)"/>
<path d="M0 0 C2.93196287 3.09044735 3.15138798 5.2485875 3.3125 9.4375 C3.9725 8.53 4.6325 7.6225 5.3125 6.6875 C9.45709034 1.67846653 15.82636513 -1.19578275 22.24609375 -1.87109375 C31.16568779 -2.19923935 38.10313518 -1.09806692 45.3125 4.4375 C49.27639286 9.12141164 52.05906012 14.22822297 52.3125 20.4375 C52.36857422 21.68853516 52.36857422 21.68853516 52.42578125 22.96484375 C52.66688453 32.215596 51.50054131 40.19749167 45.3125 47.4375 C37.21152321 53.829677 29.29169999 54.01041858 19.3125 53.4375 C13.86563939 52.3797763 8.80059976 49.81973237 5.3125 45.4375 C-0.16249821 36.45214674 -0.51300018 27.61473799 0.3125 17.4375 C0.8075 15.9525 0.8075 15.9525 1.3125 14.4375 C-4.2975 14.4375 -9.9075 14.4375 -15.6875 14.4375 C-15.66429687 17.01304687 -15.64109375 19.58859375 -15.6171875 22.2421875 C-15.60159928 24.73095202 -15.58944982 27.21971114 -15.57763672 29.70849609 C-15.56756624 31.44094265 -15.55390911 33.17337216 -15.53662109 34.90576172 C-15.51241838 37.39294639 -15.50102761 39.87990675 -15.4921875 42.3671875 C-15.48186493 43.14432098 -15.47154236 43.92145447 -15.46090698 44.72213745 C-15.46050729 46.62875493 -15.5651786 48.53481036 -15.6875 50.4375 C-17.6875 52.4375 -17.6875 52.4375 -20.65625 52.66796875 C-21.8215625 52.65378906 -22.986875 52.63960937 -24.1875 52.625 C-25.3528125 52.61855469 -26.518125 52.61210938 -27.71875 52.60546875 C-30.6875 52.4375 -30.6875 52.4375 -32.6875 51.4375 C-32.6875 36.2575 -32.6875 21.0775 -32.6875 5.4375 C-23.54222148 0.21162656 -10.40615493 -5.78951545 0 0 Z M7.375 8.3125 C2.34094807 15.93985141 2.43573451 24.61602831 3.3125 33.4375 C4.71138898 39.98798612 7.37844665 44.25103935 12.62890625 48.37890625 C16.55376574 50.84674134 20.59266228 50.65487345 25.0625 50.6875 C25.7534375 50.708125 26.444375 50.72875 27.15625 50.75 C33.53462806 50.79795773 38.13548887 49.31764598 43.0625 45.0625 C49.54263817 37.5023388 49.84773696 30.0854893 49.3125 20.4375 C48.57837532 15.01984568 46.97414985 10.55685608 43.3125 6.4375 C32.90377998 -1.29760763 16.4965277 -1.70536279 7.375 8.3125 Z " fill="#194E6D" transform="translate(596.6875,654.5625)"/>
<path d="M0 0 C2.69684925 1.05978421 4.17110083 1.05791066 7.0078125 0.6484375 C7.75160156 0.54917969 8.49539063 0.44992187 9.26171875 0.34765625 C11.42038847 -0.00308169 11.42038847 -0.00308169 13.40234375 -0.55859375 C20.8837481 -2.31808273 27.32888998 -1.20215562 34.15625 2.0859375 C37.97132493 5.21091355 40.89539578 9.2730254 41.89703369 14.16888428 C42.05196826 16.52851408 42.06122764 18.83919034 42.00390625 21.203125 C42.00040916 22.47749924 42.00040916 22.47749924 41.99684143 23.77761841 C41.98716362 25.55757819 41.96551566 27.33750999 41.93237305 29.1171875 C41.88256676 31.84941818 41.87086415 34.57985429 41.86523438 37.3125 C41.85116199 39.04689428 41.8349625 40.7812729 41.81640625 42.515625 C41.8083622 43.74211258 41.8083622 43.74211258 41.80015564 44.99337769 C41.67870635 50.72754365 41.67870635 50.72754365 39.4453125 52.9609375 C36.4765625 53.19140625 36.4765625 53.19140625 32.9453125 53.1484375 C31.78 53.14199219 30.6146875 53.13554688 29.4140625 53.12890625 C26.4453125 52.9609375 26.4453125 52.9609375 24.4453125 51.9609375 C24.4155835 50.43170654 24.4155835 50.43170654 24.38525391 48.87158203 C24.30928442 45.09561102 24.22055441 41.32002977 24.12792969 37.54443359 C24.08960398 35.9090951 24.05475743 34.27367126 24.0234375 32.63818359 C23.97786408 30.2897284 23.91985883 27.94186255 23.859375 25.59375 C23.84782379 24.86036407 23.83627258 24.12697815 23.82437134 23.37136841 C23.82663153 19.21116645 23.82663153 19.21116645 21.4453125 15.9609375 C19.24280258 15.50087404 19.24280258 15.50087404 16.8203125 15.3359375 C16.00304687 15.26117187 15.18578125 15.18640625 14.34375 15.109375 C13.71726562 15.06039062 13.09078125 15.01140625 12.4453125 14.9609375 C12.46102295 16.58104736 12.46102295 16.58104736 12.47705078 18.23388672 C12.51319444 22.23320209 12.53619234 26.23250296 12.55517578 30.23193359 C12.56524626 31.96438015 12.57890339 33.69680966 12.59619141 35.42919922 C12.62039412 37.91638389 12.63178489 40.40334425 12.640625 42.890625 C12.65094757 43.66775848 12.66127014 44.44489197 12.67190552 45.24557495 C12.67230521 47.15219243 12.5676339 49.05824786 12.4453125 50.9609375 C10.4453125 52.9609375 10.4453125 52.9609375 7.4765625 53.19140625 C6.31125 53.17722656 5.1459375 53.16304687 3.9453125 53.1484375 C2.78 53.14199219 1.6146875 53.13554688 0.4140625 53.12890625 C-2.5546875 52.9609375 -2.5546875 52.9609375 -4.5546875 51.9609375 C-4.57450684 50.9414502 -4.59432617 49.92196289 -4.61474609 48.87158203 C-4.69071558 45.09561102 -4.77944559 41.32002977 -4.87207031 37.54443359 C-4.91039602 35.9090951 -4.94524257 34.27367126 -4.9765625 32.63818359 C-5.02213592 30.2897284 -5.08014117 27.94186255 -5.140625 25.59375 C-5.15217621 24.86036407 -5.16372742 24.12697815 -5.17562866 23.37136841 C-5.17336847 19.21116645 -5.17336847 19.21116645 -7.5546875 15.9609375 C-9.98721411 15.49931323 -9.98721411 15.49931323 -12.6796875 15.3359375 C-13.58976563 15.26117187 -14.49984375 15.18640625 -15.4375 15.109375 C-16.48550781 15.03589844 -16.48550781 15.03589844 -17.5546875 14.9609375 C-17.54421387 16.04101074 -17.53374023 17.12108398 -17.52294922 18.23388672 C-17.48680556 22.23320209 -17.46380766 26.23250296 -17.44482422 30.23193359 C-17.43475374 31.96438015 -17.42109661 33.69680966 -17.40380859 35.42919922 C-17.37960588 37.91638389 -17.36821511 40.40334425 -17.359375 42.890625 C-17.34905243 43.66775848 -17.33872986 44.44489197 -17.32809448 45.24557495 C-17.32769479 47.15219243 -17.4323661 49.05824786 -17.5546875 50.9609375 C-19.5546875 52.9609375 -19.5546875 52.9609375 -22.5234375 53.19140625 C-23.68875 53.17722656 -24.8540625 53.16304687 -26.0546875 53.1484375 C-27.22 53.14199219 -28.3853125 53.13554688 -29.5859375 53.12890625 C-32.5546875 52.9609375 -32.5546875 52.9609375 -34.5546875 51.9609375 C-34.5546875 36.4509375 -34.5546875 20.9409375 -34.5546875 4.9609375 C-24.99081856 0.17900303 -10.53622128 -4.2853744 0 0 Z M-32.5546875 6.9609375 C-32.5546875 21.1509375 -32.5546875 35.3409375 -32.5546875 49.9609375 C-28.5946875 49.9609375 -24.6346875 49.9609375 -20.5546875 49.9609375 C-20.2246875 38.0809375 -19.8946875 26.2009375 -19.5546875 13.9609375 C-17.11514092 12.74116421 -15.40162901 12.75939937 -12.6796875 12.7109375 C-11.38417969 12.67226563 -11.38417969 12.67226563 -10.0625 12.6328125 C-6.88782123 13.04819103 -5.77743805 13.64213505 -3.5546875 15.9609375 C-3.12822749 18.66522038 -2.9498834 20.9821927 -2.9453125 23.69140625 C-2.92050812 24.81703728 -2.92050812 24.81703728 -2.89520264 25.96540833 C-2.84665698 28.35983406 -2.82533865 30.75362452 -2.8046875 33.1484375 C-2.77653307 34.77281853 -2.74660638 36.39716989 -2.71484375 38.02148438 C-2.64089711 42.00124977 -2.59136333 45.98066117 -2.5546875 49.9609375 C1.4053125 49.9609375 5.3653125 49.9609375 9.4453125 49.9609375 C9.4453125 38.0809375 9.4453125 26.2009375 9.4453125 13.9609375 C12.18961246 13.04617085 14.03564344 12.76855306 16.8828125 12.7109375 C17.64464844 12.68515625 18.40648437 12.659375 19.19140625 12.6328125 C22.20083967 13.07092759 23.32013858 13.76247229 25.4453125 15.9609375 C25.87177251 18.66522038 26.0501166 20.9821927 26.0546875 23.69140625 C26.07122375 24.44182693 26.08776001 25.19224762 26.10479736 25.96540833 C26.15334302 28.35983406 26.17466135 30.75362452 26.1953125 33.1484375 C26.22346693 34.77281853 26.25339362 36.39716989 26.28515625 38.02148438 C26.35910289 42.00124977 26.40863667 45.98066117 26.4453125 49.9609375 C30.4053125 49.9609375 34.3653125 49.9609375 38.4453125 49.9609375 C38.51961165 44.64073728 38.57398497 39.32084081 38.61010742 34.00024414 C38.62517005 32.19127133 38.64562427 30.3823349 38.67163086 28.57348633 C38.7081257 25.96947235 38.72506407 23.3659423 38.73828125 20.76171875 C38.75376511 19.95632156 38.76924896 19.15092438 38.78520203 18.32112122 C38.78658537 13.67884465 38.39549455 10.76544028 35.4453125 6.9609375 C30.75914145 2.5250961 24.64830256 2.28808589 18.4453125 1.9609375 C15.00402433 2.21290241 11.61184093 2.74820301 8.20507812 3.28344727 C3.25240847 4.01103639 -0.7358538 3.79551045 -5.5390625 2.46875 C-14.6106993 0.18326011 -24.28340326 3.95319778 -32.5546875 6.9609375 Z " fill="#114664" transform="translate(742.5546875,654.0390625)"/>
<path d="M0 0 C2.64590014 -0.02684679 5.29153096 -0.04676357 7.9375 -0.0625 C8.69224609 -0.07087891 9.44699219 -0.07925781 10.22460938 -0.08789062 C12.14994313 -0.09652441 14.07535581 -0.05224333 16 0 C17 1 17 1 17.11352539 3.31665039 C17.10828857 4.31688232 17.10305176 5.31711426 17.09765625 6.34765625 C17.09443359 7.42724609 17.09121094 8.50683594 17.08789062 9.61914062 C17.07951172 10.75544922 17.07113281 11.89175781 17.0625 13.0625 C17.05798828 14.20267578 17.05347656 15.34285156 17.04882812 16.51757812 C17.0369976 19.34507418 17.0190615 22.17254345 17 25 C23.6 25 30.2 25 37 25 C36.98839844 23.36289062 36.97679687 21.72578125 36.96484375 20.0390625 C36.95546647 17.9010428 36.9463662 15.76302188 36.9375 13.625 C36.92912109 12.54476562 36.92074219 11.46453125 36.91210938 10.3515625 C36.90888672 9.3203125 36.90566406 8.2890625 36.90234375 7.2265625 C36.89710693 6.27346191 36.89187012 5.32036133 36.88647461 4.33837891 C37 2 37 2 38 0 C40.64590014 -0.02684679 43.29153096 -0.04676357 45.9375 -0.0625 C46.69224609 -0.07087891 47.44699219 -0.07925781 48.22460938 -0.08789062 C50.14994313 -0.09652441 52.07535581 -0.05224333 54 0 C55 1 55 1 55.12025452 3.58790588 C55.11803391 4.74040329 55.11581329 5.8929007 55.11352539 7.08032227 C55.11344986 8.38159561 55.11337433 9.68286896 55.11329651 11.02357483 C55.10818909 12.45451902 55.10297308 13.88546282 55.09765625 15.31640625 C55.09579203 16.7722926 55.09436815 18.22817957 55.09336853 19.68406677 C55.08954365 23.52279379 55.07971364 27.36148319 55.06866455 31.20019531 C55.05844978 35.11457816 55.05387077 39.02896706 55.04882812 42.94335938 C55.03809134 50.62892343 55.02101529 58.31445645 55 66 C52.02958551 67.48520725 49.30235553 67.1705822 46 67.1875 C44.1128125 67.20876953 44.1128125 67.20876953 42.1875 67.23046875 C39 67 39 67 37 65 C36.77294922 62.56982422 36.77294922 62.56982422 36.8046875 59.5546875 C36.81113281 58.47832031 36.81757813 57.40195312 36.82421875 56.29296875 C36.84097656 55.16503906 36.85773438 54.03710938 36.875 52.875 C36.88402344 51.73933594 36.89304687 50.60367188 36.90234375 49.43359375 C36.92596801 46.62230663 36.9618399 43.81112738 37 41 C30.4 41 23.8 41 17 41 C17 49.25 17 57.5 17 66 C14.02958551 67.48520725 11.30235553 67.1705822 8 67.1875 C6.1128125 67.20876953 6.1128125 67.20876953 4.1875 67.23046875 C1 67 1 67 -1 65 C-1.24723816 62.38122559 -1.24723816 62.38122559 -1.24291992 59.02148438 C-1.24599655 57.76678345 -1.24907318 56.51208252 -1.25224304 55.21936035 C-1.24534507 53.84415505 -1.23807809 52.46895155 -1.23046875 51.09375 C-1.22927692 49.68892458 -1.22882379 48.28409836 -1.2290802 46.87927246 C-1.22751496 43.93362446 -1.21922244 40.98809792 -1.20581055 38.04248047 C-1.18882062 34.26267983 -1.1849962 30.48301276 -1.18575573 26.70317841 C-1.18548407 23.80188721 -1.18000347 20.90062533 -1.17275429 17.99934387 C-1.16956738 16.60545575 -1.16760016 15.2115643 -1.16686058 13.81767273 C-1.16469729 11.87127492 -1.15516051 9.92488948 -1.14526367 7.97851562 C-1.14145187 6.86980103 -1.13764008 5.76108643 -1.13371277 4.61877441 C-1 2 -1 2 0 0 Z M2 2 C2 22.46 2 42.92 2 64 C6.29 64 10.58 64 15 64 C15 55.75 15 47.5 15 39 C23.25 39 31.5 39 40 39 C40 47.25 40 55.5 40 64 C44.29 64 48.58 64 53 64 C53 43.54 53 23.08 53 2 C48.71 2 44.42 2 40 2 C40 10.58 40 19.16 40 28 C31.75 28 23.5 28 15 28 C15 19.42 15 10.84 15 2 C10.71 2 6.42 2 2 2 Z " fill="#044164" transform="translate(297,640)"/>
<path d="M0 0 C0.99 0.66 1.98 1.32 3 2 C3 4.97 3 7.94 3 11 C-2.94 11 -8.88 11 -15 11 C-15 23.21 -15 35.42 -15 48 C-18.96 48 -22.92 48 -27 48 C-27 34.14 -27 20.28 -27 6 C-17.57405959 1.28702979 -10.49317844 -1.04318148 0 0 Z " fill="#B88D5C" transform="translate(593,656)"/>
<path d="M0 0 C0.70253906 0.00386719 1.40507812 0.00773438 2.12890625 0.01171875 C2.83144531 0.00785156 3.53398437 0.00398437 4.2578125 0 C9.50229247 0.01010497 9.50229247 0.01010497 10.62890625 1.13671875 C10.7764444 3.55950058 10.86380971 5.95750967 10.91015625 8.3828125 C10.93777039 9.47227928 10.93777039 9.47227928 10.96594238 10.58375549 C11.0248638 12.91382529 11.07759713 15.24396962 11.12890625 17.57421875 C11.19646635 20.63557542 11.27016974 23.69669285 11.34765625 26.7578125 C11.36123169 27.46618759 11.37480713 28.17456268 11.38879395 28.90440369 C11.43326319 32.64582651 11.43326319 32.64582651 12.62890625 36.13671875 C14.10797517 36.16361091 15.58718108 36.18306496 17.06640625 36.19921875 C18.30197266 36.21662109 18.30197266 36.21662109 19.5625 36.234375 C21.62054563 36.36939223 21.62054563 36.36939223 22.62890625 35.13671875 C22.7764444 32.71393692 22.86380971 30.31592783 22.91015625 27.890625 C22.92856567 27.16431381 22.9469751 26.43800262 22.96594238 25.68968201 C23.0248638 23.35961221 23.07759713 21.02946788 23.12890625 18.69921875 C23.19646635 15.63786208 23.27016974 12.57674465 23.34765625 9.515625 C23.36123169 8.80724991 23.37480713 8.09887482 23.38879395 7.36903381 C23.51613311 2.36226503 23.51613311 2.36226503 24.62890625 0.13671875 C27.10814426 0.1098678 29.58709465 0.08995328 32.06640625 0.07421875 C32.77345703 0.06583984 33.48050781 0.05746094 34.20898438 0.04882812 C36.01584184 0.04018287 37.82278228 0.08451864 39.62890625 0.13671875 C41.65238778 2.16020028 40.84084855 6.26900489 40.8671875 9.046875 C40.87525925 9.84774033 40.88333099 10.64860565 40.89164734 11.47373962 C40.90551083 13.17607446 40.9162228 14.87843736 40.92407227 16.58081055 C40.9411761 19.16445309 40.98502588 21.74677928 41.02929688 24.33007812 C41.03943332 25.98566769 41.04794644 27.64126813 41.0546875 29.296875 C41.07219559 30.0617775 41.08970367 30.82667999 41.10774231 31.61476135 C41.08328416 37.77564616 39.46461156 43.06158697 35.2167511 47.66810608 C27.9215722 54.09412496 19.76325416 53.82686762 10.57373047 53.33203125 C5.01662968 52.77394932 1.40993703 50.24174421 -2.24609375 46.19921875 C-6.08055936 40.67307713 -6.66269852 36.22955 -6.6015625 29.58984375 C-6.60110428 28.7780365 -6.60064606 27.96622925 -6.60017395 27.12982178 C-6.59716321 25.42198211 -6.58931233 23.7141449 -6.5769043 22.00634766 C-6.55855894 19.38173805 -6.55639537 16.75747976 -6.55664062 14.1328125 C-6.55172838 12.47265318 -6.54590134 10.81249625 -6.5390625 9.15234375 C-6.53739326 7.96961884 -6.53739326 7.96961884 -6.53569031 6.76300049 C-6.47974378 0.4092064 -6.40768329 0.01234621 0 0 Z M26.62890625 2.13671875 C26.61956055 3.15096924 26.61021484 4.16521973 26.60058594 5.21020508 C26.56071263 8.97334717 26.49496283 12.73566935 26.42138672 16.49829102 C26.39316136 18.1267646 26.37195453 19.75537558 26.35791016 21.3840332 C26.33650093 23.72548846 26.28986661 26.0652892 26.23828125 28.40625 C26.23643829 29.49858696 26.23643829 29.49858696 26.23455811 30.61299133 C26.13902473 33.90979541 26.07724621 35.67500927 23.72949219 38.09277344 C21.36097197 39.26987623 19.76700756 39.56970145 17.12890625 39.57421875 C16.37609375 39.59355469 15.62328125 39.61289062 14.84765625 39.6328125 C11.67546307 38.92353691 10.62481062 37.69111718 8.62890625 35.13671875 C8.08300781 31.74511719 8.08300781 31.74511719 8.01953125 27.74609375 C7.99472687 26.68917328 7.99472687 26.68917328 7.96942139 25.61090088 C7.92099486 23.36941773 7.89958438 21.12861262 7.87890625 18.88671875 C7.85074177 17.36324724 7.82081366 15.83980723 7.7890625 14.31640625 C7.71524032 10.58999119 7.66563156 6.86370495 7.62890625 3.13671875 C3.99890625 3.13671875 0.36890625 3.13671875 -3.37109375 3.13671875 C-3.44553032 8.01135966 -3.49983042 12.88566603 -3.53588867 17.76074219 C-3.5509284 19.41737638 -3.57136552 21.07397106 -3.59741211 22.73046875 C-3.6340089 25.11858905 -3.65086814 27.50618063 -3.6640625 29.89453125 C-3.67954636 30.62914581 -3.69503021 31.36376038 -3.71098328 32.12063599 C-3.71274957 37.5792718 -2.59264163 41.70111547 1.12890625 45.78125 C6.43685079 49.9142589 10.390328 50.34219146 16.94140625 50.38671875 C18.06192383 50.41765625 18.06192383 50.41765625 19.20507812 50.44921875 C24.09974611 50.48359745 27.38363725 49.82391725 31.62890625 47.13671875 C37.41383849 41.08883504 38.94257645 36.44234048 38.82421875 28.2109375 C38.81997391 27.08955132 38.81997391 27.08955132 38.81564331 25.94551086 C38.80450094 23.57157995 38.77940787 21.1980345 38.75390625 18.82421875 C38.74386874 17.20898985 38.73474424 15.59375499 38.7265625 13.97851562 C38.70458114 10.03110281 38.67009282 6.08397601 38.62890625 2.13671875 C34.66890625 2.13671875 30.70890625 2.13671875 26.62890625 2.13671875 Z " fill="#164662" transform="translate(419.37109375,654.86328125)"/>
<path d="M0 0 C1.155 0.66 2.31 1.32 3.5 2 C3.5 6.62 3.5 11.24 3.5 16 C-2.7406015 16 -2.7406015 16 -6.5 14 C-9.08532701 13.54935368 -9.08532701 13.54935368 -11.75 13.375 C-12.64203125 13.30023437 -13.5340625 13.22546875 -14.453125 13.1484375 C-15.46632813 13.07496094 -15.46632813 13.07496094 -16.5 13 C-14.20406463 16.44390305 -13.69532311 16.46427282 -9.875 17.375 C-4.4389173 18.87977072 1.44288593 20.90760629 4.6953125 25.796875 C6.5536393 30.8847212 6.2694189 36.95529951 4.953125 42.1640625 C2.80627528 46.76156144 -0.92304163 49.0905978 -5.453125 51.12109375 C-14.07299089 53.60759353 -24.43844009 53.19431995 -32.5 49 C-34.5 47 -34.5 47 -34.6953125 43.9609375 C-34.67210937 42.77757812 -34.64890625 41.59421875 -34.625 40.375 C-34.60695313 39.18648437 -34.58890625 37.99796875 -34.5703125 36.7734375 C-34.54710937 35.85820313 -34.52390625 34.94296875 -34.5 34 C-29.828125 32.828125 -29.828125 32.828125 -26.875 34.375 C-22.18705662 36.63215793 -17.64306007 36.73461078 -12.5 37 C-12.5 36.01 -12.5 35.02 -12.5 34 C-13.1290625 33.91363281 -13.758125 33.82726562 -14.40625 33.73828125 C-21.66077906 32.54740223 -27.40415287 30.39544524 -32.4375 24.875 C-35.2746753 19.86822005 -35.36941991 14.29557141 -33.921875 8.80859375 C-31.91130583 3.99236669 -29.07109825 1.13364898 -24.390625 -1.15234375 C-16.60576024 -3.43520274 -7.44471837 -3.28651333 0 0 Z M-29.875 7.0625 C-32.32772328 11.49626901 -32.60192777 16.06527997 -31.5 21 C-27.94442526 26.53319092 -24.32217348 28.36848481 -18.1875 30.375 C-17.44693359 30.63410156 -16.70636719 30.89320313 -15.94335938 31.16015625 C-14.13468467 31.79027518 -12.31807353 32.39753615 -10.5 33 C-10.457279 34.66611905 -10.45936168 36.33382885 -10.5 38 C-12.27714844 39.77714844 -14.78270998 39.21450494 -17.1875 39.25 C-22.08849092 39.2266897 -25.28160745 38.66424792 -29.5 36 C-30.16 36 -30.82 36 -31.5 36 C-31.5 39.3 -31.5 42.6 -31.5 46 C-26.80396468 48.76926888 -22.92092974 49.46625046 -17.5625 49.375 C-16.88509766 49.38660156 -16.20769531 49.39820313 -15.50976562 49.41015625 C-9.04722942 49.37297963 -4.51583001 47.75289566 0.375 43.5 C3.38924462 39.95382985 3.98387096 36.76794329 3.8984375 32.12890625 C3.13292704 28.03867878 0.72892318 25.48785885 -2.5 23 C-5.42351705 21.60179619 -8.36016597 20.77137791 -11.5 20 C-12.85523121 19.60782687 -14.20951945 19.21236875 -15.5625 18.8125 C-16.531875 18.544375 -17.50125 18.27625 -18.5 18 C-18.54254356 16.00045254 -18.54080783 13.99958364 -18.5 12 C-16.79441557 10.29441557 -14.64005782 10.78769324 -12.3125 10.75 C-7.59963327 10.77448242 -4.57418717 11.4928079 -0.5 14 C0.16 14 0.82 14 1.5 14 C1.5 10.7 1.5 7.4 1.5 4 C-3.61423472 1.48622361 -7.82446093 0.50244441 -13.5625 0.5625 C-14.24376953 0.54251953 -14.92503906 0.52253906 -15.62695312 0.50195312 C-21.92466217 0.5080028 -25.28639326 3.07765731 -29.875 7.0625 Z " fill="#114868" transform="translate(500.5,656)"/>
<path d="M0 0 C3.670719 2.78902669 5.47355895 5.69972603 7.21875 9.8984375 C7.74263703 14.34783697 7.69219093 18.79074243 7.66479492 23.26611328 C7.65627086 25.3932332 7.68510775 27.517675 7.71679688 29.64453125 C7.718409 31.01041587 7.71783113 32.3763052 7.71484375 33.7421875 C7.71762329 35.58586914 7.71762329 35.58586914 7.72045898 37.46679688 C7.03676723 42.14318197 5.08609077 45.44346782 1.34375 48.359375 C-4.66669506 50.94475026 -10.44694648 51.30977576 -16.90625 51.3984375 C-17.75316406 51.41696777 -18.60007812 51.43549805 -19.47265625 51.45458984 C-25.36197238 51.39601825 -29.86388844 50.21192844 -34.78125 46.8984375 C-39.64125761 41.78264002 -41.3144369 37.4734852 -41.16015625 30.5 C-40.31610466 24.70475915 -37.19253275 21.02170336 -32.71875 17.4609375 C-27.21232246 14.53198668 -21.9277209 14.47146133 -15.78125 14.8984375 C-12.65625 15.8984375 -12.65625 15.8984375 -10.78125 16.8984375 C-11.11125 15.9084375 -11.44125 14.9184375 -11.78125 13.8984375 C-15.84820519 11.8649599 -21.55543135 12.16502599 -25.8203125 13.5703125 C-27.47543909 14.343191 -29.12842949 15.12063961 -30.78125 15.8984375 C-32.43125 15.8984375 -34.08125 15.8984375 -35.78125 15.8984375 C-35.78125 10.9484375 -35.78125 5.9984375 -35.78125 0.8984375 C-24.07743902 -4.43712339 -11.74374357 -7.26257826 0 0 Z M-32.78125 1.8984375 C-32.78125 5.5284375 -32.78125 9.1584375 -32.78125 12.8984375 C-28.44895285 12.0380236 -28.44895285 12.0380236 -24.78125 9.8984375 C-19.6017146 9.48599301 -14.39473071 9.21964225 -9.78125 11.8984375 C-8.42685332 14.60723085 -8.71623549 16.90777018 -8.78125 19.8984375 C-9.52375 19.5684375 -10.26625 19.2384375 -11.03125 18.8984375 C-17.43878413 17.18976173 -23.99424275 16.90307777 -30.28125 19.1484375 C-33.94902697 21.71588138 -36.34631505 23.59363264 -37.78125 27.8984375 C-38.30884548 32.92356823 -38.35117466 36.77894262 -36.03125 41.3359375 C-32.64629418 45.19102607 -29.82098483 47.65920522 -24.53222656 48.07543945 C-21.69846156 48.14196349 -18.86566667 48.18332955 -16.03125 48.2109375 C-15.05414062 48.23994141 -14.07703125 48.26894531 -13.0703125 48.29882812 C-6.73270079 48.35434629 -2.91282279 47.70595475 2.21875 43.8984375 C5.44669167 39.05652499 4.59064153 33.42280185 4.58935547 27.75708008 C4.59371442 25.60351632 4.62999867 23.45202736 4.66796875 21.29882812 C4.67384033 19.9192778 4.67780744 18.53971779 4.6796875 17.16015625 C4.69201416 15.28783325 4.69201416 15.28783325 4.70458984 13.37768555 C3.94719281 7.95373322 1.51626032 4.91988179 -2.71875 1.5859375 C-12.04363095 -3.55226221 -23.22040555 -1.47597819 -32.78125 1.8984375 Z " fill="#144969" transform="translate(549.78125,657.1015625)"/>
<path d="M0 0 C3.93405169 2.8611285 6.49959913 5.81129739 8.0625 10.5 C8.31317583 14.87766432 8.33328623 19.25747461 8.35766602 23.64135742 C8.36917992 25.08351457 8.38962291 26.52562929 8.41918945 27.9675293 C8.46203925 30.05807261 8.47805746 32.14735234 8.48828125 34.23828125 C8.50286377 35.48649658 8.51744629 36.73471191 8.5324707 38.02075195 C7.97191169 42.17063586 6.7069469 44.28612517 4.0625 47.5 C-5.41494372 52.4971976 -17.1824334 52.81668757 -27.65234375 51.0390625 C-33.28177835 49.20220284 -36.14359285 45.57436385 -39.04296875 40.60546875 C-40.98776549 36.02797772 -40.85565732 30.80918536 -39.02734375 26.2109375 C-36.09602919 21.17774786 -32.54783863 17.94413545 -27.0625 15.75 C-20.79651134 15.01282486 -15.86447424 15.52434192 -9.9375 17.5 C-10.2675 16.51 -10.5975 15.52 -10.9375 14.5 C-14.62279852 12.65735074 -18.9068807 13.13082916 -22.9375 13.5 C-24.96264567 14.15826368 -24.96264567 14.15826368 -26.75 15.0625 C-29.9375 16.5 -29.9375 16.5 -34.9375 15.5 C-34.9375 10.88 -34.9375 6.26 -34.9375 1.5 C-23.43571426 -3.74346115 -11.73190735 -6.79215688 0 0 Z M-32.9375 3.5 C-33.00976502 5.35287502 -33.0213122 7.20833878 -33 9.0625 C-32.99097656 10.07441406 -32.98195313 11.08632813 -32.97265625 12.12890625 C-32.96105469 12.91136719 -32.94945312 13.69382812 -32.9375 14.5 C-32.32003906 14.21125 -31.70257813 13.9225 -31.06640625 13.625 C-23.95210121 10.50640053 -18.61884246 9.80277878 -11 10.9375 C-7.95258472 13.24614794 -7.82821508 15.94299671 -7.19921875 19.6015625 C-7.11285156 20.22804688 -7.02648437 20.85453125 -6.9375 21.5 C-7.845 21.005 -8.7525 20.51 -9.6875 20 C-15.93677396 17.32719444 -23.11028796 17.49028141 -29.4375 19.75 C-33.10527697 22.31744388 -35.50256505 24.19519514 -36.9375 28.5 C-37.45299132 33.40984358 -37.46893398 37.3521026 -35.375 41.875 C-31.09742758 46.48161645 -27.17091607 48.67749423 -20.94140625 49.03125 C-19.12760478 49.04177242 -17.31356818 49.03093506 -15.5 49 C-14.59701172 49.01546875 -13.69402344 49.0309375 -12.76367188 49.046875 C-6.77065072 49.01215801 -1.85824801 48.09648901 3.0625 44.5 C6.29044167 39.65808749 5.43439153 34.02436435 5.43310547 28.35864258 C5.43746442 26.20507882 5.47374867 24.05358986 5.51171875 21.90039062 C5.51759033 20.5208403 5.52155744 19.14128029 5.5234375 17.76171875 C5.53576416 15.88939575 5.53576416 15.88939575 5.54833984 13.97924805 C4.87367841 9.14779071 2.72039506 6.10072627 -0.75 2.75 C-8.716065 -1.80203715 -25.80283338 -3.63466662 -32.9375 3.5 Z " fill="#114767" transform="translate(397.9375,656.5)"/>
<path d="M0 0 C2.69684925 1.05978421 4.17110083 1.05791066 7.0078125 0.6484375 C7.75160156 0.54917969 8.49539063 0.44992187 9.26171875 0.34765625 C11.41936482 -0.00094165 11.41936482 -0.00094165 13.390625 -0.56640625 C20.49016374 -2.1995701 27.08000743 -1.43389187 33.4453125 1.9609375 C32.7853125 2.9509375 32.1253125 3.9409375 31.4453125 4.9609375 C30.6925 4.79335938 29.9396875 4.62578125 29.1640625 4.453125 C22.53287284 3.18161048 16.87229072 2.92129531 10.2578125 3.9609375 C4.73589648 4.82751556 0.41075469 4.82331666 -5.00390625 3.421875 C-14.38923231 1.7259049 -23.5792272 4.51308469 -32.5546875 6.9609375 C-32.5546875 21.1509375 -32.5546875 35.3409375 -32.5546875 49.9609375 C-28.5946875 49.9609375 -24.6346875 49.9609375 -20.5546875 49.9609375 C-20.57039795 48.88086426 -20.5861084 47.80079102 -20.60229492 46.68798828 C-20.65650984 42.6887149 -20.69100654 38.68947412 -20.71948242 34.68994141 C-20.7345884 32.95746401 -20.75507444 31.22502496 -20.78100586 29.49267578 C-20.81731071 27.00543772 -20.83439515 24.51870424 -20.84765625 22.03125 C-20.86314011 21.25411652 -20.87862396 20.47698303 -20.89457703 19.67630005 C-20.89526367 17.49267578 -20.89526367 17.49267578 -20.5546875 13.9609375 C-16.3410617 11.15185363 -12.50719408 11.26385801 -7.5546875 11.9609375 C-4.9296875 13.9609375 -4.9296875 13.9609375 -3.5546875 15.9609375 C-4.5446875 16.2909375 -5.5346875 16.6209375 -6.5546875 16.9609375 C-6.8846875 16.6309375 -7.2146875 16.3009375 -7.5546875 15.9609375 C-9.23652698 15.72806742 -10.9259291 15.54829584 -12.6171875 15.3984375 C-13.53628906 15.31464844 -14.45539062 15.23085938 -15.40234375 15.14453125 C-16.46775391 15.05365234 -16.46775391 15.05365234 -17.5546875 14.9609375 C-17.54421387 16.04101074 -17.53374023 17.12108398 -17.52294922 18.23388672 C-17.48680556 22.23320209 -17.46380766 26.23250296 -17.44482422 30.23193359 C-17.43475374 31.96438015 -17.42109661 33.69680966 -17.40380859 35.42919922 C-17.37960588 37.91638389 -17.36821511 40.40334425 -17.359375 42.890625 C-17.34905243 43.66775848 -17.33872986 44.44489197 -17.32809448 45.24557495 C-17.32769479 47.15219243 -17.4323661 49.05824786 -17.5546875 50.9609375 C-19.5546875 52.9609375 -19.5546875 52.9609375 -22.5234375 53.19140625 C-23.68875 53.17722656 -24.8540625 53.16304687 -26.0546875 53.1484375 C-27.22 53.14199219 -28.3853125 53.13554688 -29.5859375 53.12890625 C-32.5546875 52.9609375 -32.5546875 52.9609375 -34.5546875 51.9609375 C-34.5546875 36.4509375 -34.5546875 20.9409375 -34.5546875 4.9609375 C-24.99081856 0.17900303 -10.53622128 -4.2853744 0 0 Z " fill="#134664" transform="translate(742.5546875,654.0390625)"/>
<path d="M0 0 C6.40451109 3.59131463 9.84839383 8.62940109 12.1328125 15.5390625 C13.82606988 25.1582055 12.91846591 34.85107136 8 43.3125 C4.38668148 48.32088874 0.46512338 51.00667688 -5.5 52.625 C-15.48074114 53.71055052 -23.17263446 52.96766073 -31.6875 47.625 C-37.54102732 42.17239921 -39.71350528 35.02838964 -40.04248047 27.23632812 C-40.10698772 20.0303961 -39.51922211 13.77943386 -35.5 7.625 C-34.9225 6.696875 -34.345 5.76875 -33.75 4.8125 C-24.88125787 -3.80988818 -10.99961845 -4.88718967 0 0 Z M-32.4375 7.5 C-37.47155193 15.12735141 -37.37676549 23.80352831 -36.5 32.625 C-35.10111102 39.17548612 -32.43405335 43.43853935 -27.18359375 47.56640625 C-23.25873426 50.03424134 -19.21983772 49.84237345 -14.75 49.875 C-14.0590625 49.895625 -13.368125 49.91625 -12.65625 49.9375 C-6.27787194 49.98545773 -1.67701113 48.50514598 3.25 44.25 C9.92968283 36.4570367 9.96587923 29.59959374 9.5 19.625 C8.80762572 14.19994078 7.16173044 9.74444674 3.5 5.625 C-6.90872002 -2.11010763 -23.3159723 -2.51786279 -32.4375 7.5 Z " fill="#154B6A" transform="translate(690.5,655.375)"/>
<path d="M0 0 C2.1640625 1.89453125 2.1640625 1.89453125 2.65234375 5.03125 C2.48958333 8.31901042 2.32682292 11.60677083 2.1640625 14.89453125 C-3.4459375 14.89453125 -9.0559375 14.89453125 -14.8359375 14.89453125 C-14.81273437 17.47007812 -14.78953125 20.045625 -14.765625 22.69921875 C-14.75003678 25.18798327 -14.73788732 27.67674239 -14.72607422 30.16552734 C-14.71600374 31.8979739 -14.70234661 33.63040341 -14.68505859 35.36279297 C-14.66085588 37.84997764 -14.64946511 40.336938 -14.640625 42.82421875 C-14.63030243 43.60135223 -14.61997986 44.37848572 -14.60934448 45.1791687 C-14.60894479 47.08578618 -14.7136161 48.99184161 -14.8359375 50.89453125 C-16.8359375 52.89453125 -16.8359375 52.89453125 -19.8046875 53.125 C-20.97 53.11082031 -22.1353125 53.09664062 -23.3359375 53.08203125 C-24.50125 53.07558594 -25.6665625 53.06914063 -26.8671875 53.0625 C-29.8359375 52.89453125 -29.8359375 52.89453125 -31.8359375 51.89453125 C-31.8359375 36.71453125 -31.8359375 21.53453125 -31.8359375 5.89453125 C-22.24232632 0.41246772 -11.05729499 -4.31021278 0 0 Z M-29.8359375 7.89453125 C-30.27176499 9.78541562 -30.27176499 9.78541562 -30.17651367 11.97705078 C-30.17628708 12.8177713 -30.17606049 13.65849182 -30.17582703 14.52468872 C-30.16034317 15.43306488 -30.14485931 16.34144104 -30.12890625 17.27734375 C-30.12466141 18.20674774 -30.12041656 19.13615173 -30.11604309 20.09371948 C-30.09921762 23.06928181 -30.06155853 26.04417281 -30.0234375 29.01953125 C-30.00839566 31.0338444 -29.99470638 33.04816814 -29.98242188 35.0625 C-29.94930144 40.00677004 -29.89749279 44.95053674 -29.8359375 49.89453125 C-25.8759375 49.89453125 -21.9159375 49.89453125 -17.8359375 49.89453125 C-17.8359375 37.68453125 -17.8359375 25.47453125 -17.8359375 12.89453125 C-11.8959375 12.89453125 -5.9559375 12.89453125 0.1640625 12.89453125 C0.1640625 9.92453125 0.1640625 6.95453125 0.1640625 3.89453125 C-8.3868082 -1.80604921 -21.91322485 2.61272281 -29.8359375 7.89453125 Z " fill="#0F4566" transform="translate(595.8359375,654.10546875)"/>
<path d="M0 0 C1.299375 -0.01546875 1.299375 -0.01546875 2.625 -0.03125 C5 0.5 5 0.5 6.78125 2.06640625 C8.46773817 5.43397717 8.47023848 8.18382806 8.5 11.9375 C8.5309375 13.23558594 8.561875 14.53367187 8.59375 15.87109375 C7.86257048 20.3399475 6.54968303 21.77462653 3 24.5 C-0.5625 25.125 -0.5625 25.125 -4 24.5 C-7.00895307 21.65761398 -7.93100735 20.00467849 -8.49609375 15.87109375 C-8.47675781 14.57300781 -8.45742188 13.27492188 -8.4375 11.9375 C-8.43621094 10.63683594 -8.43492187 9.33617187 -8.43359375 7.99609375 C-7.71069898 2.16734765 -5.95915971 -0.07094238 0 0 Z " fill="#F8FAFB" transform="translate(677,668.5)"/>
<path d="M0 0 C1.299375 -0.01546875 1.299375 -0.01546875 2.625 -0.03125 C5 0.5 5 0.5 6.78125 2.06640625 C8.46773817 5.43397717 8.47023848 8.18382806 8.5 11.9375 C8.5309375 13.23558594 8.561875 14.53367187 8.59375 15.87109375 C7.86257048 20.3399475 6.54968303 21.77462653 3 24.5 C-0.5625 25.125 -0.5625 25.125 -4 24.5 C-7.00895307 21.65761398 -7.93100735 20.00467849 -8.49609375 15.87109375 C-8.47675781 14.57300781 -8.45742188 13.27492188 -8.4375 11.9375 C-8.43621094 10.63683594 -8.43492187 9.33617187 -8.43359375 7.99609375 C-7.71069898 2.16734765 -5.95915971 -0.07094238 0 0 Z " fill="#F8FAFA" transform="translate(623,668.5)"/>
<path d="M0 0 C3.670719 2.78902669 5.47355895 5.69972603 7.21875 9.8984375 C7.74263703 14.34783697 7.69219093 18.79074243 7.66479492 23.26611328 C7.65627086 25.3932332 7.68510775 27.517675 7.71679688 29.64453125 C7.718409 31.01041587 7.71783113 32.3763052 7.71484375 33.7421875 C7.71762329 35.58586914 7.71762329 35.58586914 7.72045898 37.46679688 C7.12522081 41.53816805 5.76935628 43.70788461 3.21875 46.8984375 C0.59018738 48.42377128 -1.83597646 49.01485544 -4.78125 49.8984375 C-3.37770587 46.38957718 -2.13759177 45.4717227 1.21875 43.8984375 C4.44669167 39.05652499 3.59064153 33.42280185 3.58935547 27.75708008 C3.59371442 25.60351632 3.62999867 23.45202736 3.66796875 21.29882812 C3.67384033 19.9192778 3.67780744 18.53971779 3.6796875 17.16015625 C3.69201416 15.28783325 3.69201416 15.28783325 3.70458984 13.37768555 C3.12940736 9.25862749 1.79455927 7.12426991 -0.78125 3.8984375 C-7.3143875 -0.95953653 -14.96381925 -0.51707489 -22.78125 -0.1015625 C-26.17861012 0.40649526 -29.43277532 1.11056111 -32.78125 1.8984375 C-32.78125 5.8584375 -32.78125 9.8184375 -32.78125 13.8984375 C-33.11125 13.8984375 -33.44125 13.8984375 -33.78125 13.8984375 C-33.78125 11.5884375 -33.78125 9.2784375 -33.78125 6.8984375 C-34.44125 6.8984375 -35.10125 6.8984375 -35.78125 6.8984375 C-35.78125 4.9184375 -35.78125 2.9384375 -35.78125 0.8984375 C-34.36646865 0.24848453 -32.94933513 -0.39634972 -31.53125 -1.0390625 C-30.74234375 -1.39871094 -29.9534375 -1.75835938 -29.140625 -2.12890625 C-19.88285299 -5.94543809 -8.55319663 -5.28947687 0 0 Z " fill="#195070" transform="translate(549.78125,657.1015625)"/>
<path d="M0 0 C0.66 0.33 1.32 0.66 2 1 C1.95359375 2.03898438 1.9071875 3.07796875 1.859375 4.1484375 C1.41816575 17.31782231 1.41816575 17.31782231 7.49609375 28.6796875 C12.28836525 32.91027132 16.63652547 33.2053761 22.75 33.25 C23.4409375 33.270625 24.131875 33.29125 24.84375 33.3125 C31.16209954 33.36000639 35.74821367 31.88521646 40.6875 27.75 C43.30297658 24.63970352 45.10135172 21.58633563 47 18 C47.33 18 47.66 18 48 18 C47.56330642 23.45866973 46.56112098 26.79970346 43 31 C34.69164192 37.21451784 27.11344865 37.58062597 17 37 C11.55313939 35.9422763 6.48809976 33.38223237 3 29 C-2.53924346 19.90920994 -2.58554962 11.25362444 -2 1 C-1.34 0.67 -0.68 0.34 0 0 Z " fill="#144968" transform="translate(599,671)"/>
<path d="M0 0 C3.93405169 2.8611285 6.49959913 5.81129739 8.0625 10.5 C8.31317583 14.87766432 8.33328623 19.25747461 8.35766602 23.64135742 C8.36917992 25.08351457 8.38962291 26.52562929 8.41918945 27.9675293 C8.46203925 30.05807261 8.47805746 32.14735234 8.48828125 34.23828125 C8.50286377 35.48649658 8.51744629 36.73471191 8.5324707 38.02075195 C7.97418735 42.15378889 6.67942679 44.28922411 4.0625 47.5 C1.3125 48.875 1.3125 48.875 -0.9375 49.5 C-0.53315421 46.66957948 -0.15299463 45.68252249 2.07617188 43.79443359 C4.79020688 40.65941627 4.57880438 38.6453706 4.59375 34.5390625 C4.59949036 33.53678116 4.59949036 33.53678116 4.60534668 32.51425171 C4.60806197 31.10388682 4.60072728 29.69347125 4.58398438 28.28320312 C4.56263103 26.13816289 4.58375796 23.99649675 4.609375 21.8515625 C4.60673033 20.47655518 4.60160247 19.10154994 4.59375 17.7265625 C4.58923828 16.48471191 4.58472656 15.24286133 4.58007812 13.96337891 C3.96699394 9.86092031 2.65572517 7.70391441 0.0625 4.5 C-5.28981487 1.26630976 -9.69200024 0.35940605 -15.875 0.375 C-17.40447266 0.37113281 -17.40447266 0.37113281 -18.96484375 0.3671875 C-21.73338725 0.49088064 -24.24289535 0.87473262 -26.9375 1.5 C-26.6075 0.18 -26.2775 -1.14 -25.9375 -2.5 C-17.24308272 -5.11260815 -7.85008748 -4.54478749 0 0 Z " fill="#1A5171" transform="translate(397.9375,656.5)"/>
<path d="M0 0 C2.47923801 -0.02685095 4.9581884 -0.04676547 7.4375 -0.0625 C8.14455078 -0.07087891 8.85160156 -0.07925781 9.58007812 -0.08789062 C11.38693559 -0.09653588 13.19387603 -0.05220011 15 0 C17.04100524 2.04100524 16.16404062 6.28053904 16.16796875 9.0859375 C16.17129715 9.89866119 16.17462555 10.71138489 16.17805481 11.54873657 C16.18312799 13.27206861 16.18546302 14.9954105 16.18530273 16.71875 C16.18748506 19.35693587 16.20562483 21.99470094 16.22460938 24.6328125 C16.22754403 26.30468607 16.22952834 27.97656162 16.23046875 29.6484375 C16.23765427 30.43914642 16.24483978 31.22985535 16.25224304 32.04452515 C16.2361783 35.89443588 16.18636138 37.72045792 14 41 C13.34 41 12.68 41 12 41 C12.15847412 40.33846924 12.31694824 39.67693848 12.48022461 38.99536133 C13.11218959 35.35347388 13.23060885 31.75973293 13.31640625 28.07421875 C13.33718735 27.32662796 13.35796844 26.57903717 13.37937927 25.80879211 C13.44444189 23.43511604 13.5035571 21.06133513 13.5625 18.6875 C13.60572646 17.07225505 13.64934204 15.45702047 13.69335938 13.84179688 C13.80007851 9.89463701 13.90146619 5.94737233 14 2 C10.04 2 6.08 2 2 2 C2.02356567 3.52137573 2.02356567 3.52137573 2.04760742 5.07348633 C2.10190319 8.83610087 2.13634851 12.59868078 2.16479492 16.36157227 C2.17988243 17.99021223 2.20035506 19.61881156 2.22631836 21.24731445 C2.26270449 23.58815535 2.2797262 25.92845919 2.29296875 28.26953125 C2.30845261 28.99775589 2.32393646 29.72598053 2.33988953 30.47627258 C2.34158031 35.55384196 2.34158031 35.55384196 0.48168945 37.9831543 C-0.00726807 38.31871338 -0.49622559 38.65427246 -1 39 C-1.99 38.67 -2.98 38.34 -4 38 C-3.34 37.01 -2.68 36.02 -2 35 C-1.77190028 32.48685943 -1.65133247 30.07452418 -1.62109375 27.55859375 C-1.59560204 26.47337181 -1.59560204 26.47337181 -1.56959534 25.3662262 C-1.51650279 23.05673928 -1.47618438 20.74726968 -1.4375 18.4375 C-1.39356387 16.12425093 -1.34686183 13.81114053 -1.29469299 11.49806213 C-1.26275377 10.05915237 -1.23585797 8.62012017 -1.21446228 7.18101501 C-1.11170878 2.22341756 -1.11170878 2.22341756 0 0 Z " fill="#0D4769" transform="translate(444,655)"/>
<path d="M0 0 C3.2323704 1.30670293 4.54696718 2.09712474 6.109375 5.2109375 C8.10364878 11.4561633 7.8710453 18.5527775 5.6875 24.6875 C4 27 4 27 1 29 C-2.71723673 29.5391412 -6.28416229 29.55709711 -10 29 C-13.59573755 25.83232645 -14.87153031 22.8504577 -15.203125 18.07421875 C-15.36184128 6.60696768 -15.36184128 6.60696768 -12 2 C-7.95048409 -0.69967727 -4.75094185 -0.53437659 0 0 Z M-10.78515625 4.56640625 C-12.46849308 7.93849257 -12.43377814 10.68214539 -12.4375 14.4375 C-12.45683594 15.73558594 -12.47617187 17.03367187 -12.49609375 18.37109375 C-11.93100735 22.50467849 -11.00895307 24.15761398 -8 27 C-4.54295504 27.83345815 -4.54295504 27.83345815 -1 27 C2.54968303 24.27462653 3.86257048 22.8399475 4.59375 18.37109375 C4.5628125 17.07300781 4.531875 15.77492188 4.5 14.4375 C4.4896875 13.13683594 4.479375 11.83617187 4.46875 10.49609375 C3.98930177 6.920209 3.69409274 5.36914734 1 3 C-1.39639308 2.36841302 -1.39639308 2.36841302 -4 2.5 C-4.86625 2.4896875 -5.7325 2.479375 -6.625 2.46875 C-9.08139582 2.81888049 -9.08139582 2.81888049 -10.78515625 4.56640625 Z " fill="#11496A" transform="translate(681,666)"/>
<path d="M0 0 C3.2323704 1.30670293 4.54696718 2.09712474 6.109375 5.2109375 C8.10364878 11.4561633 7.8710453 18.5527775 5.6875 24.6875 C4 27 4 27 1 29 C-2.71723673 29.5391412 -6.28416229 29.55709711 -10 29 C-13.59573755 25.83232645 -14.87153031 22.8504577 -15.203125 18.07421875 C-15.36184128 6.60696768 -15.36184128 6.60696768 -12 2 C-7.95048409 -0.69967727 -4.75094185 -0.53437659 0 0 Z M-10.78515625 4.56640625 C-12.46849308 7.93849257 -12.43377814 10.68214539 -12.4375 14.4375 C-12.45683594 15.73558594 -12.47617187 17.03367187 -12.49609375 18.37109375 C-11.93100735 22.50467849 -11.00895307 24.15761398 -8 27 C-4.54295504 27.83345815 -4.54295504 27.83345815 -1 27 C2.54968303 24.27462653 3.86257048 22.8399475 4.59375 18.37109375 C4.5628125 17.07300781 4.531875 15.77492188 4.5 14.4375 C4.4896875 13.13683594 4.479375 11.83617187 4.46875 10.49609375 C3.98930177 6.920209 3.69409274 5.36914734 1 3 C-1.39639308 2.36841302 -1.39639308 2.36841302 -4 2.5 C-4.86625 2.4896875 -5.7325 2.479375 -6.625 2.46875 C-9.08139582 2.81888049 -9.08139582 2.81888049 -10.78515625 4.56640625 Z " fill="#11496A" transform="translate(627,666)"/>
<path d="M0 0 C1.15628906 0.01546875 2.31257813 0.0309375 3.50390625 0.046875 C6.4375 0.25 6.4375 0.25 8.4375 1.25 C8.49145478 2.87463842 8.53027195 4.49978541 8.5625 6.125 C8.58570313 7.02992188 8.60890625 7.93484375 8.6328125 8.8671875 C8.4375 11.25 8.4375 11.25 6.4375 13.25 C1.08386983 14.06899334 -3.22705805 14.16647977 -7.75 11.0625 C-9.70809996 8.02406903 -10.30353062 6.76989546 -9.5625 3.25 C-7.01152023 -0.46536427 -4.26265448 -0.09525485 0 0 Z " fill="#174A69" transform="translate(382.5625,683.75)"/>
<path d="M0 0 C1.15628906 0.01546875 2.31257812 0.0309375 3.50390625 0.046875 C6.4375 0.25 6.4375 0.25 8.4375 1.25 C8.51840971 2.87418745 8.57664995 4.49951745 8.625 6.125 C8.67720703 7.48238281 8.67720703 7.48238281 8.73046875 8.8671875 C8.63378906 9.65351562 8.53710938 10.43984375 8.4375 11.25 C4.198697 14.07586867 0.4138404 14.02656267 -4.5625 13.25 C-7.89113173 10.91995779 -9.29905718 9.63307483 -10.0625 5.625 C-8.85393772 -0.11567085 -5.29084163 -0.1182311 0 0 Z " fill="#124665" transform="translate(533.5625,683.75)"/>
<path d="M0 0 C2.31251801 0.06878927 2.31251801 0.06878927 4.5625 -0.3125 C5.30628906 -0.41175781 6.05007813 -0.51101563 6.81640625 -0.61328125 C8.97405232 -0.96187915 8.97405232 -0.96187915 10.9453125 -1.52734375 C18.04485124 -3.1605076 24.63469493 -2.39482937 31 1 C30.34 1.99 29.68 2.98 29 4 C28.2471875 3.83242188 27.494375 3.66484375 26.71875 3.4921875 C20.08756034 2.22067298 14.42697822 1.96035781 7.8125 3 C2.2922789 3.86631207 -2.03249775 3.86425984 -7.4453125 2.4609375 C-16.31666044 0.86029674 -25.66068578 2.94481345 -34 6 C-33.7578125 4.10546875 -33.7578125 4.10546875 -33 2 C-23.71224883 -3.16207629 -9.67143493 -3.87482369 0 0 Z " fill="#295771" transform="translate(745,655)"/>
<path d="M0 0 C0.33 0 0.66 0 1 0 C1.16435547 1.33804688 1.16435547 1.33804688 1.33203125 2.703125 C1.49058594 3.87359375 1.64914062 5.0440625 1.8125 6.25 C1.96332031 7.41015625 2.11414063 8.5703125 2.26953125 9.765625 C3.0049378 13.02186363 3.63240438 14.67760907 6 17 C11.00157719 17.6483526 13.96544693 16.99709657 18 14 C18.66 13.34 19.32 12.68 20 12 C19.681621 14.94500573 19.47023999 16.54809506 17.296875 18.63671875 C13.15967119 21.09230401 8.64697921 20.76978835 4 20 C1.05136388 17.40239199 0.23021592 15.69064777 -1 12 C-1.09338218 10.12686336 -1.12994843 8.25045638 -1.125 6.375 C-1.12757813 5.39273438 -1.13015625 4.41046875 -1.1328125 3.3984375 C-1 1 -1 1 0 0 Z " fill="#0A4365" transform="translate(667,675)"/>
<path d="M0 0 C0.33 0 0.66 0 1 0 C1.16435547 1.33804688 1.16435547 1.33804688 1.33203125 2.703125 C1.49058594 3.87359375 1.64914062 5.0440625 1.8125 6.25 C1.96332031 7.41015625 2.11414063 8.5703125 2.26953125 9.765625 C3.00471312 13.02086877 3.6361808 14.67576629 6 17 C11.22565403 17.69018072 14.4988362 16.63482759 19 14 C18.6875 15.875 18.6875 15.875 18 18 C13.5661078 20.95592813 9.1997729 20.77957615 4 20 C1.05136388 17.40239199 0.23021592 15.69064777 -1 12 C-1.09338218 10.12686336 -1.12994843 8.25045638 -1.125 6.375 C-1.12757813 5.39273438 -1.13015625 4.41046875 -1.1328125 3.3984375 C-1 1 -1 1 0 0 Z " fill="#094365" transform="translate(613,675)"/>
<path d="M0 0 C3.63 0 7.26 0 11 0 C11 2.31 11 4.62 11 7 C9.37536158 7.05395478 7.75021459 7.09277195 6.125 7.125 C5.22007812 7.14820313 4.31515625 7.17140625 3.3828125 7.1953125 C1 7 1 7 -1 5 C-0.67 3.35 -0.34 1.7 0 0 Z " fill="#F0F4F5" transform="translate(528,687)"/>
<path d="M0 0 C3.63 0 7.26 0 11 0 C11 2.31 11 4.62 11 7 C9.37536158 7.05395478 7.75021459 7.09277195 6.125 7.125 C5.22007812 7.14820313 4.31515625 7.17140625 3.3828125 7.1953125 C1 7 1 7 -1 5 C-0.67 3.35 -0.34 1.7 0 0 Z " fill="#F0F4F5" transform="translate(377,687)"/>
<path d="M0 0 C-2.16054365 2.16054365 -4.32094486 4.29746109 -6.5625 6.375 C-9.14508226 8.90978078 -9.14508226 8.90978078 -10.625 12.25 C-11.07875 13.1575 -11.5325 14.065 -12 15 C-12.99 15.33 -13.98 15.66 -15 16 C-15 11.05 -15 6.1 -15 1 C-14.67 1 -14.34 1 -14 1 C-13.67 3.31 -13.34 5.62 -13 8 C-12.278125 7.071875 -11.55625 6.14375 -10.8125 5.1875 C-7.68190673 1.44497773 -5.03728249 -1.67909416 0 0 Z " fill="#215574" transform="translate(613,656)"/>
<path d="M0 0 C8.59141782 -0.43995881 15.46853452 -0.46309065 23 4 C22.01 5.485 22.01 5.485 21 7 C20.154375 6.525625 19.30875 6.05125 18.4375 5.5625 C12.43856587 2.92396466 5.4603501 3.24111989 -1 3 C-0.67 2.01 -0.34 1.02 0 0 Z " fill="#1D5271" transform="translate(670,653)"/>
<path d="M0 0 C0.99 0.66 1.98 1.32 3 2 C3 2.99 3 3.98 3 5 C2.01 4.835 1.02 4.67 0 4.5 C-6.82118641 3.55108496 -12.4490877 3.81636257 -19 6 C-19.33 5.34 -19.66 4.68 -20 4 C-13.39076886 0.85006856 -7.38514363 -1.16536211 0 0 Z " fill="#E2E9ED" transform="translate(385,669)"/>
<path d="M0 0 C0.99 0.66 1.98 1.32 3 2 C3 2.99 3 3.98 3 5 C2.38125 4.835 1.7625 4.67 1.125 4.5 C-5.90931436 3.3745097 -12.27404044 3.66053581 -19 6 C-19.33 5.34 -19.66 4.68 -20 4 C-13.39076886 0.85006856 -7.38514363 -1.16536211 0 0 Z " fill="#E5EBEF" transform="translate(536,669)"/>
<path d="M0 0 C1.76923828 0.04060547 1.76923828 0.04060547 3.57421875 0.08203125 C4.47785156 0.11683594 5.38148438 0.15164063 6.3125 0.1875 C5.9825 1.1775 5.6525 2.1675 5.3125 3.1875 C4.15621094 3.24357422 4.15621094 3.24357422 2.9765625 3.30078125 C1.47222656 3.39939453 1.47222656 3.39939453 -0.0625 3.5 C-1.55910156 3.58701172 -1.55910156 3.58701172 -3.0859375 3.67578125 C-3.94445312 3.84464844 -4.80296875 4.01351562 -5.6875 4.1875 C-6.6775 5.6725 -6.6775 5.6725 -7.6875 7.1875 C-8.3475 5.8675 -9.0075 4.5475 -9.6875 3.1875 C-6.99455929 -0.5165087 -4.35133403 -0.12924755 0 0 Z " fill="#205473" transform="translate(533.6875,683.8125)"/>
<path d="M0 0 C1.98567708 0.5859375 3.97135417 1.171875 5.95703125 1.7578125 C5.95703125 2.0878125 5.95703125 2.4178125 5.95703125 2.7578125 C2.9296875 3.00195312 2.9296875 3.00195312 -0.09765625 3.24609375 C-2.43816091 3.63174286 -2.43816091 3.63174286 -4.04296875 6.7578125 C-4.50212382 9.72623908 -4.50212382 9.72623908 -4.66796875 12.9453125 C-4.74273438 14.03199219 -4.8175 15.11867188 -4.89453125 16.23828125 C-4.94351563 17.06972656 -4.9925 17.90117188 -5.04296875 18.7578125 C-5.37296875 18.7578125 -5.70296875 18.7578125 -6.04296875 18.7578125 C-6.10355469 18.13132812 -6.16414062 17.50484375 -6.2265625 16.859375 C-6.31035156 16.04210937 -6.39414062 15.22484375 -6.48046875 14.3828125 C-6.56167969 13.57070313 -6.64289062 12.75859375 -6.7265625 11.921875 C-6.93386989 9.71508445 -6.93386989 9.71508445 -8.04296875 7.7578125 C-4.58411664 -0.54343257 -4.58411664 -0.54343257 0 0 Z " fill="#2C5D7A" transform="translate(620.04296875,666.2421875)"/>
<path d="M0 0 C1.98567708 0.5859375 3.97135417 1.171875 5.95703125 1.7578125 C5.95703125 2.0878125 5.95703125 2.4178125 5.95703125 2.7578125 C2.9296875 3.00195312 2.9296875 3.00195312 -0.09765625 3.24609375 C-2.43816091 3.63174286 -2.43816091 3.63174286 -4.04296875 6.7578125 C-4.50068938 9.49654205 -4.50068938 9.49654205 -4.66796875 12.4453125 C-4.74273438 13.43917969 -4.8175 14.43304687 -4.89453125 15.45703125 C-4.94351563 16.21628906 -4.9925 16.97554687 -5.04296875 17.7578125 C-5.37296875 17.7578125 -5.70296875 17.7578125 -6.04296875 17.7578125 C-6.27083333 15.73958333 -6.49869792 13.72135417 -6.7265625 11.703125 C-6.95589836 9.68376934 -6.95589836 9.68376934 -8.04296875 7.7578125 C-4.58411664 -0.54343257 -4.58411664 -0.54343257 0 0 Z " fill="#2C5C7A" transform="translate(674.04296875,666.2421875)"/>
<path d="M0 0 C-1.3125 1.5 -1.3125 1.5 -3 3 C-3.99 3 -4.98 3 -6 3 C-6 6.96 -6 10.92 -6 15 C-6.33 15 -6.66 15 -7 15 C-7 12.69 -7 10.38 -7 8 C-7.66 8 -8.32 8 -9 8 C-9 6.02 -9 4.04 -9 2 C-3.375 -1.125 -3.375 -1.125 0 0 Z " fill="#234C65" transform="translate(523,656)"/>
<path d="M0 0 C0 0.66 0 1.32 0 2 C-7.42857143 4.42857143 -7.42857143 4.42857143 -11 3 C-10 1 -10 1 -7.1875 -0.1875 C-4.14038924 -0.96421451 -2.86250637 -1.10096399 0 0 Z " fill="#144B6B" transform="translate(581,655)"/>
<path d="M0 0 C0 0.66 0 1.32 0 2 C-4.95 3.485 -4.95 3.485 -10 5 C-9.67 3.68 -9.34 2.36 -9 1 C-2.25 -1.125 -2.25 -1.125 0 0 Z " fill="#1A4D6A" transform="translate(721,656)"/>
<path d="M0 0 C0.66 0 1.32 0 2 0 C2.12375 0.969375 2.2475 1.93875 2.375 2.9375 C2.684375 4.4534375 2.684375 4.4534375 3 6 C3.66 6.33 4.32 6.66 5 7 C4.67 7.66 4.34 8.32 4 9 C2.68 9 1.36 9 0 9 C0 6.03 0 3.06 0 0 Z " fill="#084365" transform="translate(514,664)"/>
<path d="M0 0 C2.66215851 0.38249404 5.32820516 0.6882906 8 1 C8 1.33 8 1.66 8 2 C1.565 2.495 1.565 2.495 -5 3 C-5.33 2.01 -5.66 1.02 -6 0 C-3.40292666 -1.29853667 -2.79151288 -0.73460865 0 0 Z " fill="#284E66" transform="translate(483,655)"/>
<path d="M0 0 C0.33 0.99 0.66 1.98 1 3 C-1.97 5.475 -1.97 5.475 -5 8 C-5 5 -5 5 -2.5 2.3125 C-1.675 1.549375 -0.85 0.78625 0 0 Z " fill="#185070" transform="translate(643,697)"/>
<path d="M0 0 C-0.33 0.66 -0.66 1.32 -1 2 C-3.32156597 2.40729228 -5.6568787 2.74438677 -8 3 C-7.67 2.01 -7.34 1.02 -7 0 C-2.25 -1.125 -2.25 -1.125 0 0 Z " fill="#104A6B" transform="translate(756,655)"/>
</svg>
